<svg width="36" height="24" viewBox="0 0 36 24" fill="none" xmlns="http://www.w3.org/2000/svg">
<path d="M20.3269 12.7214L20.3299 12.0132C20.3299 9.06995 20.1576 6.38663 19.8979 4.63741L19.6705 3.54966C19.5439 2.97356 19.3776 2.31761 19.2041 1.98274C18.5692 0.757848 17.3278 0 15.9991 0H15.8834C15.0173 0.0286396 13.1977 0.788691 13.1977 0.815128C10.2697 2.04366 4.62091 5.75144 2.01199 8.39478L1.25386 9.18837C1.05533 9.40346 0.832281 9.65801 0.69381 9.85643C0.23127 10.4689 0 11.2267 0 11.9846C0 12.8305 0.259635 13.617 0.750538 14.2603L1.52945 15.1009L1.70398 15.2803C4.07122 17.8469 10.2522 22.0437 13.4857 23.3281L13.9738 23.5152C14.5613 23.7257 15.3844 23.9769 15.8834 24C16.5183 24 17.1249 23.8524 17.7031 23.5616C18.4252 23.154 19.0012 22.5107 19.3198 21.7529C19.5227 21.2286 19.8412 19.6534 19.8412 19.6247C20.1332 18.0365 20.3026 15.5304 20.3269 12.7214ZM36 11.9991C36 10.3226 34.6538 8.96332 32.9935 8.96332L25.595 9.61762C24.2925 9.61762 23.2365 10.6839 23.2365 11.9991C23.2365 13.3165 24.2925 14.3806 25.595 14.3806L32.9935 15.0349C34.6538 15.0349 36 13.6756 36 11.9991Z" fill="#003D38"/>
</svg>
