<svg width="9" height="10" viewBox="0 0 9 10" fill="none" xmlns="http://www.w3.org/2000/svg">
<path d="M4.5 0.416504C4.04675 0.416504 3.60368 0.550908 3.22682 0.802719C2.84996 1.05453 2.55623 1.41244 2.38278 1.83119C2.20933 2.24993 2.16394 2.71071 2.25237 3.15525C2.34079 3.59979 2.55905 4.00813 2.87955 4.32862C3.20004 4.64912 3.60838 4.86738 4.05292 4.9558C4.49746 5.04423 4.95824 4.99885 5.37698 4.82539C5.79573 4.65194 6.15364 4.35821 6.40545 3.98135C6.65726 3.60449 6.79167 3.16142 6.79167 2.70817C6.79167 2.10038 6.55022 1.51749 6.12045 1.08772C5.69068 0.657947 5.10779 0.416504 4.5 0.416504ZM4.5 4.08317C4.22805 4.08317 3.96221 4.00253 3.73609 3.85144C3.50997 3.70035 3.33374 3.48561 3.22967 3.23436C3.1256 2.98311 3.09837 2.70665 3.15142 2.43992C3.20447 2.1732 3.33543 1.9282 3.52773 1.7359C3.72003 1.5436 3.96503 1.41265 4.23175 1.35959C4.49847 1.30654 4.77494 1.33377 5.02619 1.43784C5.27744 1.54191 5.49218 1.71814 5.64327 1.94426C5.79436 2.17038 5.875 2.43622 5.875 2.70817C5.875 3.07284 5.73013 3.42258 5.47227 3.68044C5.21441 3.9383 4.86467 4.08317 4.5 4.08317ZM8.625 9.12484V8.6665C8.625 7.8156 8.28698 6.99955 7.6853 6.39787C7.08362 5.79619 6.26757 5.45817 5.41667 5.45817H3.58333C2.73243 5.45817 1.91638 5.79619 1.3147 6.39787C0.71302 6.99955 0.375 7.8156 0.375 8.6665V9.12484H1.29167V8.6665C1.29167 8.05872 1.53311 7.47582 1.96288 7.04605C2.39265 6.61628 2.97555 6.37484 3.58333 6.37484H5.41667C6.02445 6.37484 6.60735 6.61628 7.03712 7.04605C7.46689 7.47582 7.70833 8.05872 7.70833 8.6665V9.12484H8.625Z" fill="#546475"/>
</svg>
