<svg width="28" height="28" viewBox="0 0 28 28" fill="none" xmlns="http://www.w3.org/2000/svg">
<path d="M7.35593 13.2506V13.2354" stroke="#2B2B2B" stroke-width="2" stroke-linecap="round" stroke-linejoin="round"/>
<path d="M20.644 13.2506V13.2354" stroke="#2B2B2B" stroke-width="2" stroke-linecap="round" stroke-linejoin="round"/>
<path d="M7.35593 8.64706V7.11765C7.35593 5.49514 8.05593 3.9391 9.30192 2.79181C10.5479 1.64454 12.2378 1 14 1C15.7622 1 17.4521 1.64454 18.698 2.79181C19.9441 3.9391 20.644 5.49514 20.644 7.11765V8.64706" stroke="#2B2B2B" stroke-width="2" stroke-linecap="round" stroke-linejoin="round"/>
<path d="M26.9883 23.6871L25.8809 11.4518C25.7374 9.8664 24.2981 8.64697 22.5703 8.64697H20.644H7.35593H5.4296C3.70185 8.64697 2.26253 9.8664 2.11905 11.4518L1.0117 23.6871C0.850304 25.4703 2.37874 26.9999 4.32226 26.9999H23.6777C25.6213 26.9999 27.1497 25.4703 26.9883 23.6871Z" stroke="#2B2B2B" stroke-width="2" stroke-linecap="round" stroke-linejoin="round"/>
</svg>
