<svg width="45" height="34" viewBox="0 0 45 34" fill="none" xmlns="http://www.w3.org/2000/svg">
<path d="M43.875 23.375H42.75V16.1965C42.75 15.3531 42.3914 14.543 41.7586 13.9453L34.7344 7.31133C34.1016 6.71367 33.2437 6.375 32.3508 6.375H29.25V3.1875C29.25 1.42773 27.7383 0 25.875 0H3.375C1.51172 0 0 1.42773 0 3.1875V24.4375C0 26.1973 1.51172 27.625 3.375 27.625H4.5C4.5 31.1445 7.52344 34 11.25 34C14.9766 34 18 31.1445 18 27.625H27C27 31.1445 30.0234 34 33.75 34C37.4766 34 40.5 31.1445 40.5 27.625H43.875C44.4938 27.625 45 27.1469 45 26.5625V24.4375C45 23.8531 44.4938 23.375 43.875 23.375ZM11.25 30.8125C9.38672 30.8125 7.875 29.3848 7.875 27.625C7.875 25.8652 9.38672 24.4375 11.25 24.4375C13.1133 24.4375 14.625 25.8652 14.625 27.625C14.625 29.3848 13.1133 30.8125 11.25 30.8125ZM33.75 30.8125C31.8867 30.8125 30.375 29.3848 30.375 27.625C30.375 25.8652 31.8867 24.4375 33.75 24.4375C35.6133 24.4375 37.125 25.8652 37.125 27.625C37.125 29.3848 35.6133 30.8125 33.75 30.8125ZM39.375 17H29.25V9.5625H32.3508L39.375 16.1965V17Z" fill="white"/>
</svg>
