<svg width="11" height="10" viewBox="0 0 11 10" fill="none" xmlns="http://www.w3.org/2000/svg">
<path d="M3.13916 0C3.22204 0 3.30153 0.032924 3.36013 0.0915291C3.41874 0.150134 3.45166 0.22962 3.45166 0.3125V0.625H8.45166V0.3125C8.45166 0.22962 8.48458 0.150134 8.54319 0.0915291C8.60179 0.032924 8.68128 0 8.76416 0C8.84704 0 8.92653 0.032924 8.98513 0.0915291C9.04374 0.150134 9.07666 0.22962 9.07666 0.3125V0.625H9.70166C10.0332 0.625 10.3511 0.756696 10.5855 0.991117C10.82 1.22554 10.9517 1.54348 10.9517 1.875V8.75C10.9517 9.08152 10.82 9.39946 10.5855 9.63388C10.3511 9.8683 10.0332 10 9.70166 10H2.20166C1.87014 10 1.5522 9.8683 1.31778 9.63388C1.08336 9.39946 0.95166 9.08152 0.95166 8.75V1.875C0.95166 1.54348 1.08336 1.22554 1.31778 0.991117C1.5522 0.756696 1.87014 0.625 2.20166 0.625H2.82666V0.3125C2.82666 0.22962 2.85958 0.150134 2.91819 0.0915291C2.97679 0.032924 3.05628 0 3.13916 0V0ZM1.57666 2.5V8.75C1.57666 8.91576 1.64251 9.07473 1.75972 9.19194C1.87693 9.30915 2.0359 9.375 2.20166 9.375H9.70166C9.86742 9.375 10.0264 9.30915 10.1436 9.19194C10.2608 9.07473 10.3267 8.91576 10.3267 8.75V2.5H1.57666Z" fill="#546475"/>
</svg>
