<svg width="34" height="23" viewBox="0 0 34 23" fill="none" xmlns="http://www.w3.org/2000/svg">
<path d="M1.08423 2.46483L15.2509 10.1871C15.7269 10.4458 16.3427 10.5685 16.9622 10.5685C17.5818 10.5685 18.1976 10.4458 18.6736 10.1871L32.8402 2.46483C33.7639 1.96075 34.6366 0 32.9422 0H0.984114C-0.710219 0 0.162447 1.96075 1.08423 2.46483ZM33.269 6.68725L18.6736 14.4057C18.0313 14.7468 17.5818 14.7871 16.9622 14.7871C16.3427 14.7871 15.8931 14.7468 15.2509 14.4057C14.6087 14.0645 1.77745 7.23925 0.729114 6.68533C-0.00755242 6.29433 3.05256e-06 6.75242 3.05256e-06 7.10508V21.0833C3.05256e-06 21.8883 1.06911 23 1.88889 23H32.1111C32.9309 23 34 21.8883 34 21.0833V7.107C34 6.75433 34.0076 6.29625 33.269 6.68725Z" fill="white"/>
</svg>
