<svg width="19" height="19" viewBox="0 0 19 19" fill="none" xmlns="http://www.w3.org/2000/svg">
<path d="M18.24 0H0.76C0.339625 0 0 0.339625 0 0.76V18.24C0 18.6604 0.339625 19 0.76 19H18.24C18.6604 19 19 18.6604 19 18.24V0.76C19 0.339625 18.6604 0 18.24 0ZM16.0455 5.54562H14.5279C13.338 5.54562 13.1076 6.11087 13.1076 6.94212V8.77325H15.9481L15.5776 11.6399H13.1076V19H10.146V11.6423H7.66887V8.77325H10.146V6.6595C10.146 4.20612 11.6446 2.869 13.8344 2.869C14.8841 2.869 15.7843 2.94738 16.0479 2.983V5.54562H16.0455Z" fill="white"/>
</svg>
