<svg width="54" height="47" viewBox="0 0 54 47" fill="none" xmlns="http://www.w3.org/2000/svg">
<path d="M13.2905 24.9989H3.32404C2.92755 24.9989 2.5473 24.8414 2.26694 24.5611C1.98658 24.2807 1.82908 23.9004 1.82908 23.504C1.82908 23.1075 1.98658 22.7272 2.26694 22.4469C2.5473 22.1665 2.92755 22.009 3.32404 22.009H12.4932L16.0312 16.7019C16.1676 16.4963 16.3527 16.3276 16.5701 16.211C16.7875 16.0943 17.0304 16.0333 17.2771 16.0333C17.5238 16.0333 17.7666 16.0943 17.984 16.211C18.2014 16.3276 18.3865 16.4963 18.5229 16.7019L25.2502 26.7929L27.991 22.6817C28.1269 22.4754 28.3118 22.3059 28.5292 22.1885C28.7466 22.0711 28.9897 22.0094 29.2368 22.009H35.2166C35.6131 22.009 35.9934 22.1665 36.2737 22.4469C36.5541 22.7272 36.7116 23.1075 36.7116 23.504C36.7116 23.9004 36.5541 24.2807 36.2737 24.5611C35.9934 24.8414 35.6131 24.9989 35.2166 24.9989H30.0341L26.496 30.3061C26.3596 30.5116 26.1745 30.6803 25.9571 30.7969C25.7398 30.9136 25.4969 30.9746 25.2502 30.9746C25.0035 30.9746 24.7606 30.9136 24.5433 30.7969C24.3259 30.6803 24.1408 30.5116 24.0044 30.3061L17.2771 20.215L14.5363 24.3262C14.4004 24.5325 14.2155 24.702 13.9981 24.8194C13.7807 24.9368 13.5376 24.9985 13.2905 24.9989ZM39.2032 0.0828259C36.8446 0.0816566 34.5216 0.657794 32.4369 1.76095C30.3522 2.86411 28.5692 4.46075 27.2435 6.41151C25.5075 3.85209 22.9962 1.9171 20.0788 0.890952C17.1613 -0.135192 13.9917 -0.198352 11.0357 0.710755C8.07967 1.61986 5.49328 3.45328 3.65669 5.94151C1.8201 8.42974 0.830172 11.4415 0.832432 14.5342C0.832432 14.883 0.832432 15.2567 0.857348 15.6056C0.883031 16.0044 1.06478 16.3771 1.36323 16.6429C1.66169 16.9087 2.05284 17.0463 2.45198 17.0258C2.64734 17.0163 2.83884 16.9679 3.01528 16.8835C3.19171 16.7991 3.34952 16.6803 3.47946 16.5341C3.6094 16.3879 3.70887 16.2173 3.77203 16.0321C3.83519 15.847 3.86077 15.6512 3.84728 15.4561C3.82236 15.1321 3.82236 14.8332 3.82236 14.5342C3.81656 11.8803 4.73192 9.30661 6.41222 7.2524C8.09252 5.19819 10.4336 3.79075 13.036 3.27028C15.6383 2.7498 18.3407 3.14856 20.6818 4.39848C23.0229 5.64841 24.8577 7.67203 25.8731 10.124C25.9804 10.4003 26.1686 10.6377 26.4132 10.805C26.6577 10.9724 26.9471 11.062 27.2435 11.062C27.5398 11.062 27.8293 10.9724 28.0738 10.805C28.3184 10.6377 28.5066 10.4003 28.6139 10.124C29.6293 7.67203 31.4641 5.64841 33.8052 4.39848C36.1463 3.14856 38.8487 2.7498 41.451 3.27028C44.0534 3.79075 46.3945 5.19819 48.0748 7.2524C49.7551 9.30661 50.6704 11.8803 50.6646 14.5342C50.6646 28.8111 31.2799 41.2691 27.2435 43.686C24.8515 42.2409 17.0279 37.2826 11.0979 30.5054C10.9691 30.3558 10.812 30.2332 10.6356 30.1446C10.4592 30.056 10.267 30.0033 10.0701 29.9894C9.87318 29.9755 9.67548 30.0007 9.48838 30.0636C9.30129 30.1265 9.1285 30.2259 8.98 30.3559C8.68362 30.6196 8.50208 30.9887 8.47415 31.3844C8.44622 31.7801 8.5741 32.171 8.8305 32.4738C16.2555 40.9452 26.0974 46.5015 26.5209 46.7258C26.7398 46.8551 26.9893 46.9233 27.2435 46.9233C27.4977 46.9233 27.7472 46.8551 27.9661 46.7258C32.5094 44.0697 36.7748 40.9646 40.6982 37.457C49.2942 29.7081 53.6546 22.009 53.6546 14.5342C53.6546 10.7014 52.132 7.02568 49.4219 4.31552C46.7117 1.60537 43.036 0.0828259 39.2032 0.0828259Z" fill="white"/>
</svg>
