<svg width="55" height="56" viewBox="0 0 55 56" fill="none" xmlns="http://www.w3.org/2000/svg">
<path fill-rule="evenodd" clip-rule="evenodd" d="M23.5128 0.630573C18.5619 1.42655 14.3828 3.23932 10.4662 6.29002C9.30626 7.19356 6.7799 9.75035 5.88711 10.9243C2.79275 14.9933 0.870564 19.6265 0.265545 24.4741C0.142292 25.4621 0.145792 25.5038 0.396858 26.0164C0.576434 26.3831 0.783799 26.6162 1.0791 26.7831C1.49224 27.0166 1.58802 27.0228 4.73849 27.0228C7.89108 27.0228 7.98431 27.0167 8.39194 26.783C8.96917 26.4522 9.16508 26.0548 9.41742 24.7028C10.8361 17.1051 16.5735 11.2986 24.0808 9.86285C25.4156 9.60758 25.8081 9.40974 26.1385 8.82502C26.3747 8.40712 26.3775 8.35763 26.3507 5.02021C26.3236 1.64286 26.3233 1.63835 26.0689 1.27734C25.5931 0.602126 24.8535 0.41502 23.5128 0.630573ZM29.283 0.716129C29.044 0.826052 28.7337 1.07864 28.5936 1.27734L28.3389 1.63878V5.12756C28.3389 8.60861 28.3394 8.61709 28.5859 8.96683C28.9321 9.45783 29.3414 9.6414 30.6045 9.87155C31.8682 10.1019 33.6932 10.6757 34.8556 11.2082C35.8836 11.6792 37.8455 12.8698 37.8035 12.9972C37.7858 13.051 36.4991 13.7689 34.9443 14.5927L32.1172 16.0904L31.2808 15.823C29.3684 15.2116 26.9901 15.0399 25.0864 15.3759C21.8013 15.9557 18.6219 18.0438 16.7966 20.8202C13.3774 26.0207 14.0663 32.8827 18.4398 37.1871C24.5981 43.248 34.7715 41.5358 38.6285 33.7892C40.1147 30.804 40.3775 27.268 39.3559 23.9954L39.0918 23.1492L40.5977 20.2303C41.426 18.625 42.1163 17.2962 42.1316 17.2775C42.1939 17.202 43.4145 19.3084 43.8307 20.2098C44.4145 21.4743 44.9742 23.2524 45.2451 24.7028C45.4974 26.0548 45.6933 26.4522 46.2706 26.783C46.6782 27.0167 46.7714 27.0228 49.924 27.0228C53.0745 27.0228 53.1703 27.0166 53.5834 26.7831C53.8767 26.6174 54.0862 26.3831 54.2617 26.0247C54.5081 25.5218 54.5119 25.4749 54.3912 24.4682C53.666 18.426 50.7018 12.4743 46.2532 8.12802C42.1684 4.13739 36.9114 1.5105 31.3483 0.679953C29.9364 0.469123 29.8158 0.47127 29.283 0.716129ZM24.5735 5.12273V7.90881L24.1757 7.97752C17.6779 9.09908 12.1864 13.2319 9.34815 19.1364C8.51328 20.8733 7.87814 22.8783 7.55452 24.7989L7.48664 25.2015H4.73244H1.97814L2.04051 24.7452C2.43869 21.831 3.20939 19.2702 4.47162 16.6674C7.46023 10.5046 12.6731 5.83744 19.0578 3.60838C20.1717 3.21957 22.1348 2.71729 23.1945 2.55005C23.6321 2.48102 24.0617 2.41039 24.1492 2.393C24.2367 2.37561 24.368 2.35586 24.4409 2.34899C24.5439 2.33932 24.5735 2.95872 24.5735 5.12273ZM32.3695 2.72889C36.087 3.45616 40.163 5.37091 43.1769 7.80565C47.2182 11.0704 50.3742 15.8181 51.779 20.7466C52.058 21.7253 52.5113 23.9102 52.6085 24.7452L52.6617 25.2015H49.9187H47.1759L47.108 24.7989C46.5835 21.6863 45.3859 18.7438 43.6432 16.2855C43.0788 15.4894 43.0727 15.4725 43.2167 15.1152C43.406 14.6459 43.4037 13.7365 43.2123 13.274C42.7078 12.0555 41.2378 11.4252 40.0509 11.9184C39.6987 12.0648 39.6732 12.0576 39.158 11.6671C38.4592 11.1377 37.0902 10.2846 36.2522 9.85652C34.7349 9.08137 32.232 8.26445 30.4868 7.97483L30.0891 7.90881V5.12144V2.33396L30.5398 2.39654C30.7877 2.431 31.6111 2.58053 32.3695 2.72889ZM41.4173 13.7368C41.704 14.027 41.5 14.5447 39.8209 17.7891C38.873 19.621 38.0734 21.1191 38.0443 21.1182C38.0151 21.1174 37.8242 20.8672 37.62 20.5622C37.0683 19.7381 35.718 18.3504 34.8751 17.7408C34.4669 17.4456 34.1304 17.18 34.1274 17.1504C34.1246 17.1209 35.5894 16.3151 37.3826 15.3596C40.5918 13.6495 41.1208 13.4368 41.4173 13.7368ZM30.2482 17.4106C32.1239 17.9707 33.4995 18.7805 34.8986 20.1481C36.2668 21.4855 37.21 23.0894 37.7895 25.0636C38.1849 26.4108 38.2619 28.6812 37.9616 30.1394C37.4996 32.3831 36.5795 34.105 34.9752 35.7286C33.3711 37.3522 31.6696 38.2833 29.4526 38.7509C28.0118 39.0548 25.7684 38.9769 24.4373 38.5767C22.554 38.0105 21.1152 37.1683 19.7639 35.841C18.4005 34.5016 17.4718 32.9261 16.8638 30.9213C16.5971 30.042 16.5778 29.8445 16.5778 27.9925C16.5778 26.137 16.5968 25.9431 16.8674 25.0404C17.0267 24.5091 17.3185 23.7269 17.5158 23.3024C18.7342 20.6813 21.1731 18.4795 23.8421 17.5912C25.2615 17.1188 25.8121 17.0447 27.5964 17.0861C29.0499 17.1199 29.4306 17.1665 30.2482 17.4106ZM25.475 19.0231C22.1965 19.8008 19.7432 22.0458 18.7232 25.2015C18.4429 26.0688 18.3862 26.4298 18.3445 27.6168C18.2886 29.2042 18.4152 30.0039 18.9393 31.3757C19.3792 32.5273 19.9973 33.4638 20.9613 34.4392C22.8548 36.3557 24.9621 37.1842 27.7025 37.0897C28.8983 37.0484 29.2151 36.9965 30.0891 36.6986C31.5617 36.1965 32.5278 35.6014 33.5921 34.5407C34.6552 33.4811 35.2645 32.5764 35.7229 31.3765C36.1775 30.1867 36.3431 29.2985 36.3453 28.0391C36.3486 26.0977 35.8801 24.5046 34.8454 22.9391C33.6933 21.1959 32.1036 19.9714 30.1123 19.2933C29.1783 18.9752 28.9418 18.9389 27.5964 18.9072C26.5804 18.8831 25.9105 18.9197 25.475 19.0231ZM29.6107 21.0595C31.7855 21.8122 33.3849 23.4139 34.1629 25.6182C34.4666 26.4789 34.4892 26.6442 34.488 27.9925C34.4868 29.3026 34.4582 29.524 34.1893 30.2994C33.4199 32.5187 31.8509 34.1207 29.6773 34.9064C28.828 35.2134 28.6617 35.2368 27.3313 35.2368C26.0008 35.2368 25.8345 35.2134 24.9852 34.9064C22.1065 33.8659 20.2783 31.3749 20.1429 28.3086C20.1026 27.393 20.1355 27.0054 20.3144 26.2893C20.9901 23.5852 22.8895 21.6305 25.5468 20.9044C26.6932 20.591 28.4513 20.6581 29.6107 21.0595ZM24.2931 25.3105C23.717 25.5392 23.5508 26.3232 23.9853 26.7628C24.5109 27.2948 25.3715 27.011 25.4891 26.2669C25.5376 25.9605 25.4995 25.8273 25.3002 25.6066C25.017 25.2927 24.627 25.1781 24.2931 25.3105ZM29.7995 25.2782C29.4095 25.3523 29.1055 25.8373 29.1746 26.2749C29.2911 27.0114 30.1546 27.2918 30.6772 26.7628C31.296 26.1367 30.6887 25.1095 29.7995 25.2782ZM1.18538 29.1254C0.695125 29.3877 0.518626 29.5884 0.323458 30.1056C0.154066 30.5544 0.154384 30.6604 0.328232 31.925C0.814984 35.4676 2.27513 39.52 4.15214 42.538C6.31287 46.012 9.40808 49.159 12.8138 51.3443C16.1093 53.459 20.0977 54.9173 23.846 55.378C24.8213 55.4979 24.8913 55.4927 25.3568 55.2647C25.6251 55.1332 25.9526 54.8726 26.0842 54.6858C26.3208 54.3501 26.3236 54.3067 26.3236 50.8574C26.3236 47.3764 26.3231 47.3679 26.0766 47.0181C25.7293 46.5253 25.3596 46.3638 23.8946 46.0646C16.4351 44.5413 10.8363 38.8131 9.4119 31.2468C9.17282 29.9767 9.00852 29.6062 8.53206 29.2623C8.18924 29.0149 8.15148 29.012 4.84456 28.9837C1.96265 28.9591 1.45967 28.9787 1.18538 29.1254ZM23.9853 29.2221C22.9832 30.2363 24.927 31.6423 27.3313 31.6423C29.7355 31.6423 31.6794 30.2363 30.6772 29.2221C30.3187 28.8592 29.8217 28.8745 29.2879 29.2648C28.6981 29.6961 28.2686 29.8174 27.3313 29.8174C26.3939 29.8174 25.9644 29.6961 25.3746 29.2648C24.8409 28.8745 24.3438 28.8592 23.9853 29.2221ZM46.5298 29.0339C46.1833 29.1704 45.7759 29.5283 45.6203 29.833C45.5301 30.0093 45.3638 30.6456 45.2506 31.2468C44.2903 36.3479 41.4804 40.6034 37.1959 43.4457C35.2912 44.7093 33.1752 45.5712 30.7679 46.0639C29.3025 46.364 28.9331 46.5254 28.5859 47.0181C28.3417 47.3647 28.3386 47.4065 28.3081 50.7247C28.2731 54.5276 28.2883 54.6155 29.0653 55.134C29.443 55.3862 29.5873 55.4174 30.2949 55.4008C31.8907 55.3631 35.0276 54.5955 37.3018 53.686C45.9705 50.2195 52.3525 42.4459 54.1152 33.2064C54.5116 31.1292 54.5432 30.5721 54.2971 30.009C54.1819 29.7451 53.9263 29.4129 53.7294 29.2708L53.3713 29.0123L50.0301 28.9917C48.1924 28.9804 46.6173 28.9994 46.5298 29.0339ZM7.49629 30.8254C7.49629 31.1132 7.9106 32.9168 8.19433 33.8642C10.2494 40.7257 15.7537 45.9772 22.6651 47.6706C23.2772 47.8206 23.957 47.9732 24.1757 48.0097L24.5735 48.0762V50.8672V53.6582L24.2287 53.602C20.7383 53.0326 18.4961 52.3301 15.8402 50.9737C13.3726 49.7134 11.3407 48.2122 9.29735 46.1394C5.29822 42.0828 2.84207 37.0159 2.04878 31.1861L1.99405 30.7835H4.74517C6.25825 30.7835 7.49629 30.8023 7.49629 30.8254ZM52.643 31.0787C52.6124 31.241 52.5333 31.7362 52.4672 32.179C52.3187 33.1742 51.8222 35.201 51.4811 36.2045C50.1764 40.043 48.1563 43.3138 45.3132 46.191C41.2709 50.2821 36.2718 52.7732 30.4868 53.5795L30.0891 53.6349V50.8527V48.0705L30.3277 48.0186C30.459 47.9902 30.9721 47.8879 31.468 47.7914C31.9638 47.695 32.9185 47.4308 33.5893 47.2044C40.7073 44.8026 45.8378 38.7235 47.108 31.1861L47.1759 30.7835H49.9373H52.6987L52.643 31.0787Z" fill="white"/>
</svg>
