<svg width="19" height="19" viewBox="0 0 19 19" fill="none" xmlns="http://www.w3.org/2000/svg">
<path d="M17.1 0.101776H1.9C0.855 0.101776 0 0.947616 0 1.98142V17.0186C0 18.0524 0.855 18.8982 1.9 18.8982H17.1C18.145 18.8982 19 18.0524 19 17.0186V1.98142C19 0.947616 18.145 0.101776 17.1 0.101776ZM9.5 5.74071C11.59 5.74071 13.3 7.43239 13.3 9.5C13.3 11.5676 11.59 13.2593 9.5 13.2593C7.41 13.2593 5.7 11.5676 5.7 9.5C5.7 7.43239 7.41 5.74071 9.5 5.74071ZM2.375 17.0186C2.09 17.0186 1.9 16.8306 1.9 16.5487V8.56018H3.895C3.8 8.84212 3.8 9.21805 3.8 9.5C3.8 12.6014 6.365 15.1389 9.5 15.1389C12.635 15.1389 15.2 12.6014 15.2 9.5C15.2 9.21805 15.2 8.84212 15.105 8.56018H17.1V16.5487C17.1 16.8306 16.91 17.0186 16.625 17.0186H2.375ZM17.1 4.33098C17.1 4.61292 16.91 4.80089 16.625 4.80089H14.725C14.44 4.80089 14.25 4.61292 14.25 4.33098V2.45133C14.25 2.16938 14.44 1.98142 14.725 1.98142H16.625C16.91 1.98142 17.1 2.16938 17.1 2.45133V4.33098Z" fill="white"/>
</svg>
