<svg width="23" height="23" viewBox="0 0 23 23" fill="none" xmlns="http://www.w3.org/2000/svg">
<path d="M22.5623 21.4134L16.4263 15.2774C17.9008 13.5072 18.6361 11.2367 18.4792 8.93818C18.3223 6.63967 17.2853 4.49014 15.5839 2.93674C13.8825 1.38334 11.6477 0.545681 9.34447 0.598016C7.04121 0.65035 4.8468 1.58865 3.21772 3.21772C1.58865 4.8468 0.65035 7.04121 0.598016 9.34447C0.545681 11.6477 1.38334 13.8825 2.93674 15.5839C4.49014 17.2853 6.63967 18.3223 8.93818 18.4792C11.2367 18.6361 13.5072 17.9008 15.2774 16.4263L21.4134 22.5623L22.5623 21.4134ZM2.24976 9.56226C2.24976 8.11598 2.67863 6.70219 3.48214 5.49965C4.28565 4.29712 5.4277 3.35986 6.76389 2.80639C8.10007 2.25292 9.57037 2.10811 10.9889 2.39027C12.4073 2.67242 13.7103 3.36887 14.733 4.39154C15.7556 5.41421 16.4521 6.71717 16.7343 8.13566C17.0164 9.55415 16.8716 11.0244 16.3181 12.3606C15.7647 13.6968 14.8274 14.8389 13.6249 15.6424C12.4223 16.4459 11.0085 16.8748 9.56226 16.8748C7.62352 16.8726 5.76481 16.1015 4.39392 14.7306C3.02302 13.3597 2.25191 11.501 2.24976 9.56226V9.56226Z" fill="black"/>
</svg>
