<svg width="61" height="60" viewBox="0 0 61 60" fill="none" xmlns="http://www.w3.org/2000/svg">
<path fill-rule="evenodd" clip-rule="evenodd" d="M15.0097 0.433927C14.85 0.526316 14.6712 0.672804 14.6126 0.759391C14.5539 0.845978 14.5029 2.71159 14.4993 4.90528C14.4932 8.56863 14.4475 9.28352 13.9389 13.6739L13.3852 18.4542L14.7367 24.8888C15.6278 29.1307 16.1866 31.4822 16.3768 31.7895C16.6926 32.2999 17.6303 32.8975 18.1153 32.8975C18.3606 32.8975 18.4223 32.9862 18.4223 33.3387C18.4223 34.3525 18.8956 36.0764 19.5354 37.3936C20.0991 38.5539 20.4023 38.9671 21.4554 40.0108C22.5338 41.0793 22.9349 41.3642 24.3658 42.0776C25.2787 42.5327 26.1118 42.9051 26.2173 42.9051C26.3589 42.9051 26.4092 43.1851 26.4092 43.9753V45.0455L22.4573 46.0312C17.8274 47.1858 17.0144 47.53 15.7068 48.8902C14.3095 50.3436 13.9881 51.1364 13.1729 55.1408C12.7855 57.0444 12.4685 58.6954 12.4685 58.8097C12.4685 58.9238 12.6289 59.1775 12.825 59.3733L13.1813 59.7294H31.3076C51.5656 59.7294 50.0793 59.8093 50.0793 58.7203C50.0793 58.4137 49.7825 56.708 49.4199 54.9295C48.6246 51.03 48.2951 50.2347 46.8975 48.8387C45.5927 47.5357 44.7485 47.176 40.4951 46.1114C38.5383 45.6216 36.7903 45.1817 36.6106 45.1338C36.3133 45.0546 36.2838 44.9599 36.2838 44.0846L36.284 43.1226L37.7723 42.4299C40.2336 41.2844 41.798 39.9245 42.9157 37.9591C43.4094 37.0909 43.9567 35.4804 44.054 34.6099C44.2427 32.92 44.236 32.9362 44.7784 32.8347C45.3524 32.7271 46.0783 32.1678 46.3666 31.6108C46.4754 31.4008 47.1675 28.3607 47.9046 24.8547L49.2449 18.4805L48.7166 13.8322C48.2303 9.55358 48.1885 8.8574 48.1899 5.08005L48.1915 0.976077L47.835 0.620155C47.3828 0.168364 46.9672 0.168364 46.515 0.620155L46.1585 0.976077L46.1546 4.8625C46.1511 8.39053 46.2003 9.19664 46.6891 13.6075L47.2274 18.4663L45.9307 24.6189C45.1693 28.2306 44.5619 30.7952 44.4598 30.8288C44.327 30.8725 44.2755 29.484 44.2419 24.9663C44.1985 19.112 44.1943 19.0389 43.8615 18.3639C43.4472 17.5237 42.721 16.8704 41.6635 16.3869C40.5095 15.8592 39.6907 15.837 37.5251 16.2752C36.4975 16.4832 35.5094 16.6533 35.3296 16.6533C34.9942 16.6533 34.2508 15.9125 34.2508 15.5781C34.2508 15.4778 34.659 15.2821 35.1578 15.1436C37.8124 14.4065 39.73 12.5239 40.8186 9.58636C41.1008 8.82506 41.1343 8.39082 41.187 4.81637L41.245 0.883978L40.8504 0.574033C40.3632 0.19128 40.047 0.182868 39.6036 0.54111C39.2626 0.816535 39.2603 0.839307 39.1805 4.71093C39.1151 7.87637 39.0544 8.7215 38.8553 9.23377C38.543 10.0377 37.994 11.0161 37.8892 10.9557C37.2787 10.6037 35.6407 9.91951 34.8064 9.66845C33.8184 9.37098 33.3888 9.34415 28.7797 9.29208L23.8166 9.23624L23.6347 8.77488C23.5118 8.46363 23.4334 7.09999 23.3935 4.57953L23.3344 0.845398L22.9644 0.554743C22.4955 0.186349 22.1307 0.186203 21.7623 0.554163C21.4869 0.829154 21.4718 1.03757 21.4718 4.55806C21.4718 8.73804 21.5636 9.34386 22.459 11.0694C23.084 12.2738 24.5347 13.7982 25.6721 14.4457C26.1054 14.6923 26.9058 15.0032 27.4509 15.1366C27.9962 15.2701 28.4419 15.4211 28.4416 15.4724C28.44 15.7622 27.8185 16.5135 27.5182 16.5888C27.3245 16.6373 26.2931 16.5012 25.2265 16.2861C22.9426 15.8257 21.9901 15.8568 20.8171 16.4301C19.8779 16.889 18.8331 18.0008 18.595 18.7946C18.474 19.198 18.4223 21.1206 18.4223 25.2221C18.4223 30.5756 18.4026 31.0545 18.191 30.8432C18.0398 30.692 17.5159 28.4902 16.6774 24.4821L15.395 18.3521L15.8905 14.0581C16.3491 10.0843 16.3861 9.43349 16.3877 5.33184C16.3889 2.00729 16.344 0.840321 16.2078 0.662361C15.9629 0.342118 15.3654 0.228119 15.0097 0.433927ZM55.3804 7.45837C55.0612 7.57498 54.5244 7.94077 54.1873 8.27116C52.4912 9.93387 52.935 12.6538 55.0893 13.7974C56.0033 14.2827 57.3995 14.2264 58.3084 13.6679C58.6942 13.4306 59.2143 12.9331 59.4639 12.5624C61.3107 9.81973 58.5072 6.31548 55.3804 7.45837ZM57.6417 9.68034C58.6687 10.706 57.7172 12.3689 56.2597 12.0958C55.5942 11.9712 55.1619 11.4119 55.1619 10.676C55.1619 9.38476 56.7196 8.75936 57.6417 9.68034ZM33.8878 11.4782C34.8877 11.7381 36.2838 12.2958 36.2838 12.4353C36.2838 12.6276 35.4372 13.0195 34.4042 13.3054C33.8189 13.4674 33.1801 13.7047 32.9847 13.8326C32.5775 14.0991 32.2171 14.8614 32.2193 15.4521C32.2214 16.0898 32.8438 17.2569 33.4937 17.842C34.4554 18.7079 34.9952 18.7793 37.2235 18.3353C38.2641 18.128 39.4052 17.9585 39.7594 17.9585C41.0694 17.9588 42.2359 18.8904 42.2371 19.9371C42.2377 20.3343 42.1625 20.4228 41.65 20.6276C40.3127 21.1621 38.3116 21.1721 36.8647 20.6514C35.9985 20.3397 34.7933 19.5039 34.3239 18.8892C33.7877 18.1871 33.2453 18.2145 32.2139 18.9958C31.1997 19.7641 29.6086 20.5051 28.3433 20.7985C27.0798 21.0914 24.7328 21.0939 23.4809 20.8037C22.2945 20.5286 20.4553 19.7249 20.4553 19.4817C20.4553 19.1653 21.048 18.5388 21.625 18.2447C22.3645 17.8678 22.9976 17.8835 25.3719 18.337C27.0684 18.6612 27.443 18.6914 27.9785 18.5469C29.263 18.2004 30.33 16.757 30.33 15.3662C30.33 14.284 29.7571 13.69 28.3696 13.3338C27.8105 13.1902 27.0917 12.9377 26.7722 12.7727C26.0927 12.4215 24.957 11.4755 24.957 11.2605C24.957 11.0103 32.826 11.2021 33.8878 11.4782ZM0.943711 20.3526C0.154609 21.1408 0.831605 22.2381 1.93612 21.9612C2.94682 21.7078 2.63765 20.1342 1.57729 20.1342C1.34915 20.1342 1.06395 20.2325 0.943711 20.3526ZM33.8634 21.2052C35.7804 22.7592 38.7091 23.4086 41.1486 22.8203C41.6278 22.7047 42.0688 22.6078 42.1288 22.605C42.1887 22.6021 42.2377 25.1348 42.2377 28.2331C42.2377 33.3964 42.2134 33.9612 41.9465 35.0034C41.1788 38.0018 39.0782 40.0397 35.5965 41.164C32.7762 42.0749 29.977 42.0669 27.1784 41.1399C23.6299 39.9649 21.22 37.5883 20.6146 34.6671C20.514 34.1815 20.4553 31.6868 20.4553 27.8931V21.8877L21.3719 22.2323C24.8944 23.5565 29.2696 23.2039 32.1824 21.3611C32.721 21.0204 33.1833 20.7354 33.2099 20.728C33.2363 20.7204 33.5304 20.9352 33.8634 21.2052ZM23.0191 25.9109C22.6018 26.3714 22.7139 27.0091 23.3032 27.5257C23.9797 28.1191 24.3616 28.2563 25.3368 28.2563C26.6353 28.2563 27.8613 27.4441 27.8613 26.5837C27.8613 25.7223 26.8422 25.3249 26.1937 25.9335C25.6744 26.4207 25.077 26.4529 24.5632 26.0211C24.0372 25.579 23.3634 25.5309 23.0191 25.9109ZM34.9268 25.9109C34.5094 26.3714 34.6216 27.0091 35.2108 27.5257C35.8874 28.1191 36.2693 28.2563 37.2444 28.2563C38.1053 28.2563 38.7368 28.0062 39.3697 27.4149C39.8448 26.9708 39.9078 26.2511 39.5034 25.8856C39.1424 25.5593 38.4205 25.5809 38.1064 25.9274C37.6656 26.414 37.0648 26.4482 36.4485 26.0217C35.8109 25.5803 35.2625 25.5403 34.9268 25.9109ZM28.973 32.5826C27.9742 33.6849 30.0417 35.3183 31.9253 34.9149C32.9005 34.7059 33.8152 33.9106 33.8152 33.2712C33.8152 32.336 32.8422 32.0109 32.0462 32.6799C31.8089 32.8793 31.4691 33.0425 31.291 33.0425C31.113 33.0425 30.7459 32.8793 30.4752 32.6799C29.8939 32.2516 29.3072 32.2136 28.973 32.5826ZM6.74072 33.3649C6.5775 33.5974 6.51462 34.0434 6.51462 34.9669C6.51462 36.1321 6.54642 36.2783 6.87113 36.6025C7.06717 36.7983 7.36413 36.9585 7.53113 36.9585C7.69813 36.9585 7.99509 36.7983 8.19114 36.6025C8.51584 36.2783 8.54764 36.1321 8.54764 34.9669C8.54764 33.3883 8.36496 33.0425 7.53113 33.0425C7.11247 33.0425 6.9083 33.1258 6.74072 33.3649ZM54.3857 33.3078C54.0597 33.6675 54.0829 34.2855 54.4358 34.6379C55.0318 35.2332 56.0332 34.833 56.0332 33.9995C56.0332 33.7217 55.9224 33.4224 55.7676 33.2825C55.4151 32.9639 54.6851 32.9772 54.3857 33.3078ZM2.88423 37.2486C2.536 37.5964 2.51146 38.082 2.8199 38.5216C3.02872 38.8196 3.16014 38.844 4.55421 38.844C5.94828 38.844 6.0797 38.8196 6.28852 38.5216C6.59696 38.082 6.57242 37.5964 6.22419 37.2486C5.97456 36.9993 5.74019 36.9585 4.55421 36.9585C3.36823 36.9585 3.13385 36.9993 2.88423 37.2486ZM8.83807 37.2486C8.47518 37.611 8.46283 38.2872 8.81324 38.604C9.02351 38.794 9.38466 38.844 10.5476 38.844C11.9008 38.844 12.0341 38.8186 12.2424 38.5216C12.5508 38.082 12.5263 37.5964 12.178 37.2486C11.9284 36.9993 11.694 36.9585 10.5081 36.9585C9.32207 36.9585 9.0877 36.9993 8.83807 37.2486ZM7.14123 38.9914C6.64575 39.1886 6.51462 39.5975 6.51462 40.9441C6.51462 42.0767 6.54788 42.2261 6.87113 42.549C7.06717 42.7448 7.36413 42.9051 7.53113 42.9051C7.69813 42.9051 7.99509 42.7448 8.19114 42.549C8.51642 42.2242 8.54764 42.0796 8.54764 40.8972C8.54764 39.8716 8.49464 39.5402 8.29351 39.3078C7.97738 38.9426 7.55509 38.8266 7.14123 38.9914ZM31.7594 43.7028H34.2777L34.228 44.8739C34.1656 46.3419 33.813 46.9411 32.6844 47.4972C32.0254 47.8221 31.7907 47.8642 31.0282 47.7951C29.3065 47.6392 28.4416 46.6244 28.3257 44.6242L28.2597 43.4851L28.7502 43.5938C29.0201 43.6537 30.3741 43.7028 31.7594 43.7028ZM28.0185 48.6237C28.9281 49.392 29.9519 49.7601 31.1839 49.7621C31.7925 49.7631 32.5624 49.6882 32.8949 49.5956C33.7938 49.3454 34.8416 48.567 35.3919 47.7404L35.8796 47.0082L39.7484 47.9783C41.8762 48.512 43.9011 49.0944 44.2482 49.2726C45.0839 49.7019 46.0566 50.6907 46.4971 51.5591C46.777 52.1107 47.9049 56.9539 47.9017 57.5901C47.9014 57.65 40.4267 57.6989 31.2915 57.6989H14.6818L15.2488 54.9301C15.5607 53.4073 15.9509 51.8969 16.116 51.5736C16.5493 50.7253 17.5728 49.6898 18.3716 49.2913C18.7518 49.1016 20.7972 48.5132 22.9167 47.9837L26.7705 47.0209L27.1463 47.6128C27.3529 47.9383 27.7454 48.3933 28.0185 48.6237Z" fill="white"/>
</svg>
