<svg width="51" height="56" viewBox="0 0 51 56" fill="none" xmlns="http://www.w3.org/2000/svg">
<path fill-rule="evenodd" clip-rule="evenodd" d="M23.5552 0.266471C20.3125 0.599573 16.9346 1.65377 14.1689 3.19567C7.37748 6.98221 2.87616 13.4755 1.66985 21.2255C1.40258 22.943 1.40183 26.6213 1.66845 28.3526C2.08955 31.0868 2.74323 33.1811 3.94469 35.6456C5.59225 39.0254 7.96275 41.9518 10.9442 44.2867L11.8749 45.0157L11.7953 45.6789C11.7516 46.0436 11.7208 46.4575 11.7269 46.5986C11.7428 46.9646 12.1168 47.2964 12.5133 47.2964C13.2438 47.2964 13.1572 47.716 14.447 37.926C15.0955 33.0036 15.6416 28.9606 15.6607 28.9415C15.7112 28.8907 18.0319 29.2055 18.0982 29.2722C18.1724 29.3465 15.1181 52.6109 14.9731 53.0762C14.6738 54.0365 13.105 54.0991 12.6625 53.1686C12.4995 52.8256 12.4995 52.7015 12.6631 51.4967C12.8618 50.033 12.8067 49.7408 12.2918 49.5269C11.9237 49.374 11.5885 49.4679 11.3858 49.7807C11.1849 50.0908 10.8597 52.483 10.9389 53.0682C11.1354 54.5199 12.5619 55.5974 14.0794 55.4403C15.146 55.3299 16.215 54.5528 16.5025 53.6789C16.5641 53.4916 16.7746 52.1408 16.9703 50.677C17.1661 49.2133 17.353 47.9887 17.3858 47.9558C17.4186 47.923 17.6211 47.9697 17.8359 48.0598C18.5128 48.3434 20.5689 48.8804 21.8711 49.1135C23.4565 49.3975 26.9503 49.5053 28.5754 49.3205C30.1643 49.1398 32.0809 48.7366 33.5036 48.2835C34.1761 48.0694 34.7395 47.9097 34.7557 47.9285C34.772 47.9473 34.9153 49.1774 35.0742 50.6619C35.2694 52.4853 35.4257 53.502 35.5559 53.7952C35.9446 54.6706 36.8667 55.3109 37.9187 55.4359C39.507 55.6245 41.0499 54.3109 41.0639 52.7582C41.0657 52.5571 40.8881 50.701 40.6692 48.6336L40.2713 44.8745L40.5081 44.7082C41.7811 43.8139 43.8785 41.7962 45.099 40.2916C47.7667 37.0029 49.4614 33.2401 50.2327 28.8928C50.5147 27.3033 50.6221 23.9021 50.4408 22.2993C50.0959 19.2482 49.271 16.4358 47.9344 13.7531C47.4718 12.8245 47.0932 12.0143 47.0932 11.9527C47.0932 11.6907 48.3772 10.5556 49.1101 10.1699C49.9285 9.73908 50.2173 9.44628 50.2173 9.0477C50.2173 8.548 49.9684 8.25044 49.2208 7.8564C47.8356 7.12634 46.9461 6.09743 46.3151 4.49535C45.9185 3.48826 45.6211 3.17817 45.0517 3.17817C44.506 3.17817 44.2481 3.45693 43.849 4.47871C43.5398 5.27003 42.8349 6.42794 42.6226 6.49331C42.5634 6.51157 42.1271 6.20645 41.6531 5.81533C40.5766 4.92698 39.4454 4.15057 39.2274 4.15057C38.9749 4.15057 38.581 4.46574 38.4711 4.75573C38.3145 5.1689 38.5181 5.50297 39.2165 5.97869C39.5714 6.22028 40.1859 6.69395 40.5823 7.03126L41.303 7.64442L40.8317 7.88482C40.1959 8.20906 39.9618 8.49268 39.9618 8.9389C39.9618 9.51673 40.1517 9.74697 40.9311 10.1144C42.0499 10.6418 42.9503 11.6067 43.5832 12.9568C43.8616 13.5507 44.1481 14.1566 44.2199 14.3031C44.2916 14.4496 44.5267 14.6368 44.7421 14.719C45.2357 14.9075 45.6233 14.7487 45.9849 14.2099L46.2313 13.8428L46.7029 14.8581C47.6503 16.8977 48.2431 18.7793 48.6568 21.0596C48.8917 22.3549 48.9894 25.8367 48.8298 27.2243C48.1539 33.0979 45.4416 38.313 41.0637 42.1565C40.2793 42.8452 40.1406 42.9298 40.0758 42.7591C40.0344 42.6499 39.8493 41.0901 39.6646 39.293L39.3288 36.0255L40.0862 34.9712C41.6106 32.8491 42.6795 30.2782 43.1232 27.6665C43.4478 25.7556 43.3738 22.9049 42.9517 21.0639C42.1511 17.5716 40.7493 15.0575 38.1467 12.4467L36.6696 10.9649L36.4516 9.08498C36.3168 7.92242 36.1634 7.06551 36.0496 6.83927C34.8461 4.44629 31.4478 4.85719 30.9031 7.46161C30.7946 7.98109 30.7529 8.04516 30.5607 7.98843C28.8818 7.49262 25.9575 7.27091 24.0431 7.49424C22.5667 7.66657 20.7947 8.12154 19.47 8.66868L18.4046 9.10864L16.6913 8.88164C15.0948 8.67009 14.9531 8.66652 14.6128 8.82935C14.032 9.10713 13.9031 9.42046 13.6559 11.1539L13.429 12.7456L12.7471 13.5533C10.8219 15.8331 9.4415 18.7522 8.89048 21.7079C8.5812 23.3666 8.60684 26.597 8.94165 28.1774C9.54007 31.0016 10.7091 33.5017 12.4596 35.7008L13.0197 36.4044L12.5826 39.7255C12.3422 41.5522 12.1087 43.0467 12.0638 43.0467C11.8845 43.0467 9.99025 41.3582 9.2309 40.5216C7.541 38.6595 6.45847 37.0738 5.38638 34.8893C1.47691 26.9238 2.51894 17.3782 8.0541 10.4502C14.1336 2.84107 24.2508 -0.127784 33.3951 3.01416C34.1855 3.28578 35.0198 3.60398 35.249 3.72131C35.8041 4.00536 36.1673 3.99002 36.4871 3.66923C36.7884 3.36714 36.8254 3.00768 36.5898 2.67036C36.4201 2.42737 34.3009 1.54172 32.9273 1.13969C31.9953 0.866984 30.3906 0.52459 29.3185 0.36987C28.1999 0.208451 24.7268 0.146109 23.5552 0.266471ZM46.5546 7.83069C46.999 8.2821 47.4761 8.72141 47.6149 8.80687L47.8672 8.96235L47.231 9.45795C46.5102 10.0194 45.9911 10.6221 45.4526 11.5231L45.0821 12.1428L44.586 11.3575C44.1252 10.6278 43.0129 9.4358 42.5149 9.13792C42.3086 9.01454 42.3154 8.99682 42.6765 8.71979C43.3604 8.19502 44.2425 7.19873 44.6655 6.47332L45.082 5.75904L45.4143 6.38451C45.5971 6.72852 46.1102 7.37928 46.5546 7.83069ZM34.3365 7.18404C34.4778 7.31715 34.6164 7.50353 34.6447 7.59807C34.714 7.8308 36.7699 27.1818 36.7295 27.2222C36.6921 27.2598 34.6978 27.4883 34.4076 27.4883C34.2336 27.4883 34.1939 27.3307 34.0799 26.1869C33.9176 24.5593 33.758 24.2225 32.648 23.1665L31.7962 22.356L31.7964 21.7619C31.7969 20.1792 32.4586 7.67175 32.5509 7.49877C32.6091 7.38976 32.7903 7.19495 32.9536 7.06584C33.3243 6.77271 33.9574 6.82684 34.3365 7.18404ZM27.9911 9.12615C28.4545 9.1886 29.2644 9.34364 29.7909 9.47092L30.748 9.70213L30.683 10.789C30.6471 11.3867 30.5108 14.1788 30.3801 16.9935C30.1221 22.5463 30.1295 22.7083 30.6723 23.4987C30.8183 23.7112 31.16 24.0516 31.4316 24.255C32.3773 24.9632 32.2811 24.5234 33.0441 31.6263C33.4221 35.1442 33.7321 38.1503 33.7333 38.3063C33.735 38.556 33.6247 38.6439 32.8131 39.0399C28.6359 41.0776 23.6558 41.1173 19.4225 39.1468C18.5248 38.729 18.5217 38.7261 18.5839 38.3751C18.6182 38.1812 19.0381 35.0363 19.517 31.3862C19.9958 27.7362 20.4129 24.7087 20.444 24.6583C20.4749 24.6081 20.7513 24.44 21.0582 24.2847C22.296 23.6588 23.1079 22.6786 23.4366 21.4139C23.6447 20.6127 24.794 11.9574 24.794 11.1907C24.794 10.2602 24.2862 9.85664 22.9342 9.71283C22.5335 9.67026 22.1832 9.59884 22.1557 9.55433C22.1034 9.46951 22.9238 9.27136 23.9322 9.12539C24.8189 8.99692 27.0353 8.99736 27.9911 9.12615ZM16.8879 10.5602C16.8955 10.5707 16.6685 12.3296 16.3836 14.4689C16.0986 16.6081 15.8924 18.469 15.9253 18.6041C16.0601 19.1575 16.7373 19.3296 17.1913 18.9257C17.4533 18.6926 17.4854 18.5215 17.9665 14.793C18.2425 12.6537 18.4994 10.8679 18.5373 10.8245C18.6023 10.7503 19.9445 10.9195 20.0386 11.0138C20.0626 11.038 19.8523 12.8149 19.5713 14.9626C19.1713 18.0196 19.086 18.924 19.1786 19.1277C19.4225 19.6647 20.2206 19.736 20.5253 19.2481C20.6144 19.1054 20.8837 17.4165 21.1839 15.1171C21.4633 12.9778 21.7035 11.215 21.7177 11.1996C21.7624 11.1514 23.0677 11.3508 23.1325 11.4158C23.1664 11.4499 22.9187 13.585 22.582 16.1606C21.9189 21.2328 21.8368 21.5779 21.1238 22.293C20.9221 22.4953 20.5142 22.7695 20.2171 22.9025C19.5951 23.181 19.1633 23.5986 18.9389 24.1389C18.8524 24.3468 18.6944 25.2098 18.5877 26.0567C18.432 27.2925 18.3609 27.5955 18.2274 27.5924C17.8624 27.5839 15.9598 27.3075 15.9079 27.2554C15.8775 27.2248 15.9516 26.4631 16.0727 25.5628C16.355 23.4626 16.3108 23.261 15.364 22.3353C14.618 21.6059 14.4198 21.2927 14.2331 20.5491C14.1266 20.1246 14.1903 19.4477 14.7152 15.4276C15.048 12.8798 15.342 10.6941 15.3686 10.5704C15.4143 10.3572 15.4553 10.3505 16.1456 10.4433C16.5463 10.4971 16.8804 10.5497 16.8879 10.5602ZM39.0722 16.0344C40.2075 17.7448 41.0118 19.6448 41.4528 21.6582C41.737 22.9551 41.7396 26.5957 41.4575 27.9204C41.0706 29.7368 40.0087 32.3686 39.3068 33.2503L39.0635 33.556L38.0103 23.6343C37.4311 18.1773 36.9615 13.6639 36.9667 13.6045C36.9858 13.3896 38.4 15.0216 39.0722 16.0344ZM12.7602 17.9263C12.5338 19.589 12.5125 19.9783 12.6134 20.6098C12.7828 21.6717 13.193 22.4578 13.9961 23.2602C14.5173 23.7809 14.6723 24.0042 14.6333 24.1786C14.6051 24.3054 14.2998 26.5847 13.9549 29.244C13.6101 31.9032 13.3014 34.079 13.2691 34.079C13.1817 34.079 12.1508 32.3941 11.7815 31.648C11.3115 30.6983 10.8238 29.2476 10.5536 27.9948C10.2348 26.5177 10.2058 23.2896 10.4984 21.8407C10.7622 20.5341 11.2386 19.1182 11.8093 17.9441C12.2928 16.9496 12.9292 15.8726 12.9917 15.9434C13.01 15.9644 12.906 16.8566 12.7602 17.9263ZM36.967 29.0056C36.967 29.0676 37.5245 34.3419 38.2059 40.7261C38.8872 47.1104 39.4447 52.5043 39.4447 52.7126C39.4447 52.9732 39.3523 53.1952 39.1485 53.424C38.6255 54.011 37.5341 53.9705 37.1281 53.349C36.996 53.1468 36.6663 50.3619 35.7255 41.502C35.0491 35.1314 34.4702 29.7417 34.439 29.5249L34.3825 29.1304L35.2708 29.0267C36.5194 28.8808 36.967 28.8753 36.967 29.0056ZM33.9992 40.6967C34.0312 40.8899 34.1769 42.1887 34.3231 43.583C34.529 45.5453 34.5595 46.1376 34.4584 46.204C34.1817 46.3856 31.6754 47.1419 30.6569 47.3512C27.3562 48.0294 23.2079 47.9247 20.1618 47.0863C18.9678 46.7577 17.5764 46.2498 17.5764 46.1427C17.5764 46.01 18.198 41.3007 18.2802 40.8105L18.3381 40.4651L19.2195 40.8435C22.9623 42.4502 27.4706 42.6467 31.3306 41.3713C31.9718 41.1595 32.7873 40.8462 33.1428 40.6751C33.4983 40.5041 33.8233 40.36 33.8651 40.3549C33.9067 40.3498 33.9671 40.5035 33.9992 40.6967ZM3.7119 41.7772C3.59049 41.9109 3.295 42.4441 3.05542 42.9622C2.55589 44.0422 1.80946 44.8776 1.03804 45.2198C0.393838 45.5056 0.124847 45.8124 0.124847 46.2615C0.124847 46.8075 0.283743 47.0112 0.960152 47.3322C1.87905 47.7682 2.49966 48.4576 3.09614 49.7051C3.37676 50.2919 3.68346 50.8311 3.77772 50.9035C4.01385 51.0848 4.66247 51.0748 4.93178 50.8856C5.05416 50.7996 5.24085 50.4957 5.34653 50.2103C5.85316 48.8424 6.63676 47.8894 7.69591 47.3532C8.49222 46.95 8.73094 46.5111 8.48059 45.9101C8.38773 45.687 8.19953 45.479 8.02135 45.4023C6.84919 44.8976 6.03985 44.0308 5.49012 42.6915C5.31432 42.2628 5.07204 41.8271 4.95182 41.7232C4.63349 41.4479 3.98552 41.4761 3.7119 41.7772ZM5.69663 45.843L6.1898 46.2658L5.59052 46.8527C5.26088 47.1755 4.84582 47.6693 4.66828 47.9501L4.34543 48.4607L3.94922 47.8619C3.73129 47.5327 3.30965 47.0438 3.01222 46.7757L2.47154 46.288L3.00543 45.8066C3.29898 45.5418 3.72213 45.0588 3.94566 44.7334L4.35211 44.1415L4.77773 44.7808C5.01182 45.1324 5.42538 45.6104 5.69663 45.843Z" fill="white"/>
</svg>
