<svg width="72" height="102" viewBox="0 0 72 102" fill="none" xmlns="http://www.w3.org/2000/svg">
<path d="M61.7143 0H41.1429V20.7009C48.5039 21.5033 55.5609 24.0559 61.7143 28.1418V0ZM30.8571 0H10.2857V28.1418C16.4391 24.0559 23.4961 21.5033 30.8571 20.7009V0ZM36 102C45.5478 102 54.7045 98.2388 61.4558 91.5437C68.2072 84.8487 72 75.7682 72 66.3C72 56.8318 68.2072 47.7513 61.4558 41.0563C54.7045 34.3612 45.5478 30.6 36 30.6C26.4522 30.6 17.2955 34.3612 10.5442 41.0563C3.79285 47.7513 0 56.8318 0 66.3C0 75.7682 3.79285 84.8487 10.5442 91.5437C17.2955 98.2388 26.4522 102 36 102ZM29.7 58.5531L36 45.9L42.3 58.5531L56.3811 60.5778L46.1931 70.431L48.6 84.3387L36 77.775L23.4051 84.3387L25.812 70.431L15.624 60.5778L29.7 58.5531Z" fill="inherit"/>
</svg>
