<svg width="11" height="12" viewBox="0 0 11 12" fill="none" xmlns="http://www.w3.org/2000/svg">
<path d="M9.625 1.21929C9.80734 1.21929 9.9822 1.29507 10.1111 1.42996C10.2401 1.56486 10.3125 1.74781 10.3125 1.93858V7.69288C10.3125 7.88365 10.2401 8.0666 10.1111 8.2015C9.9822 8.33639 9.80734 8.41217 9.625 8.41217H3.03463C2.66998 8.41225 2.3203 8.56387 2.0625 8.83367L0.6875 10.2723V1.93858C0.6875 1.74781 0.759933 1.56486 0.888864 1.42996C1.0178 1.29507 1.19266 1.21929 1.375 1.21929H9.625ZM1.375 0.5C1.01033 0.5 0.660591 0.651564 0.402728 0.921349C0.144866 1.19113 0 1.55704 0 1.93858L0 11.1404C1.44477e-05 11.2116 0.0202074 11.2812 0.0580231 11.3403C0.0958388 11.3995 0.149577 11.4455 0.212437 11.4727C0.275297 11.4999 0.344452 11.507 0.41115 11.493C0.477848 11.4791 0.53909 11.4447 0.587125 11.3943L2.54856 9.34221C2.67746 9.20731 2.8523 9.1315 3.03463 9.13146H9.625C9.98967 9.13146 10.3394 8.9799 10.5973 8.71011C10.8551 8.44032 11 8.07442 11 7.69288V1.93858C11 1.55704 10.8551 1.19113 10.5973 0.921349C10.3394 0.651564 9.98967 0.5 9.625 0.5H1.375Z" fill="#546475"/>
</svg>
