<svg width="59" height="59" viewBox="0 0 59 59" fill="none" xmlns="http://www.w3.org/2000/svg">
<path d="M29.5 0C45.759 0 59 13.2344 59 29.5171C59 45.7656 45.759 59 29.5 59C13.2408 59 0 45.7656 0 29.5171C0 13.2344 13.2408 0 29.5 0ZM26.14 17.7882C25.514 17.7882 24.916 17.9305 24.346 18.2151C23.634 18.6136 23.065 19.2397 22.751 19.9797C22.552 20.492 22.239 22.0289 22.239 22.0574C21.926 23.7366 21.755 26.4689 21.755 29.4858C21.755 32.3632 21.926 34.9788 22.182 36.6864C22.21 36.7149 22.524 38.6218 22.865 39.2764C23.492 40.4718 24.716 41.2118 26.026 41.2118H26.14C26.994 41.1833 28.788 40.4433 28.788 40.4149C31.806 39.1626 37.758 35.2634 40.15 32.6734L40.32 32.5027C40.634 32.1896 41.032 31.7057 41.118 31.5919C41.573 30.9942 41.801 30.2542 41.801 29.5171C41.801 28.6889 41.545 27.9204 41.061 27.2943C40.947 27.1804 40.52 26.6966 40.121 26.2981C37.786 23.7935 31.693 19.6951 28.503 18.4428C28.019 18.2465 26.795 17.8167 26.14 17.7882Z" fill="white"/>
</svg>
