<svg width="23" height="19" viewBox="0 0 23 19" fill="none" xmlns="http://www.w3.org/2000/svg">
<path opacity="0.5" d="M21.0477 15.9181C23.2161 13.6141 22.9978 10.6553 22.9909 10.6216V1.62158C22.9909 1.32321 22.8698 1.03707 22.6543 0.826087C22.4388 0.615109 22.1465 0.496582 21.8417 0.496582H14.9469C13.6794 0.496582 12.6486 1.50571 12.6486 2.74658V10.6216C12.6486 10.92 12.7697 11.2061 12.9852 11.4171C13.2007 11.6281 13.493 11.7466 13.7977 11.7466H17.3348C17.3105 12.3028 17.1408 12.8435 16.8418 13.3171C16.2581 14.2182 15.1583 14.8336 13.5714 15.1441L12.6486 15.3241V18.4966H13.7977C16.9958 18.4966 19.4354 17.6292 21.0477 15.9181ZM8.39907 15.9181C10.5687 13.6141 10.3492 10.6553 10.3423 10.6216V1.62158C10.3423 1.32321 10.2212 1.03707 10.0057 0.826087C9.79019 0.615109 9.4979 0.496582 9.19313 0.496582H2.29828C1.03078 0.496582 0 1.50571 0 2.74658V10.6216C0 10.92 0.12107 11.2061 0.336576 11.4171C0.552082 11.6281 0.84437 11.7466 1.14914 11.7466H4.6862C4.66192 12.3028 4.49217 12.8435 4.19322 13.3171C3.60945 14.2182 2.50972 14.8336 0.922761 15.1441L0 15.3241V18.4966H1.14914C4.3472 18.4966 6.78683 17.6292 8.39907 15.9181Z" fill="#00B67A"/>
</svg>
