<svg width="32" height="34" viewBox="0 0 32 34" fill="none" xmlns="http://www.w3.org/2000/svg">
<path d="M29.5674 5.55655L17.1924 0.244047C16.8154 0.0829317 16.4113 0 16.0032 0C15.5951 0 15.191 0.0829317 14.8141 0.244047L2.43906 5.55655C1.28535 6.04795 0.53125 7.21006 0.53125 8.49834C0.53125 21.68 7.91113 30.7909 14.8076 33.7526C15.5682 34.078 16.4254 34.078 17.1859 33.7526C22.7096 31.3819 31.4688 23.194 31.4688 8.49834C31.4688 7.21006 30.7146 6.04795 29.5674 5.55655ZM16.0064 29.6355L16 4.33467L27.3373 9.20225C27.1246 19.2562 22.0457 26.5409 16.0064 29.6355Z" fill="white"/>
</svg>
