<svg width="55" height="54" viewBox="0 0 55 54" fill="none" xmlns="http://www.w3.org/2000/svg">
<path d="M27.3275 9.58745C27.7226 9.58745 28.1016 9.43048 28.381 9.15107C28.6604 8.87166 28.8174 8.49269 28.8174 8.09755V3.03189C28.8174 2.63675 28.6604 2.25778 28.381 1.97837C28.1016 1.69896 27.7226 1.54199 27.3275 1.54199C26.9323 1.54199 26.5534 1.69896 26.274 1.97837C25.9946 2.25778 25.8376 2.63675 25.8376 3.03189V8.09755C25.8376 8.49269 25.9946 8.87166 26.274 9.15107C26.5534 9.43048 26.9323 9.58745 27.3275 9.58745Z" fill="white"/>
<path d="M27.3275 44.4214C26.9323 44.4214 26.5534 44.5784 26.274 44.8578C25.9946 45.1372 25.8376 45.5161 25.8376 45.9113V50.9769C25.8376 51.3721 25.9946 51.751 26.274 52.0305C26.5534 52.3099 26.9323 52.4668 27.3275 52.4668C27.7226 52.4668 28.1016 52.3099 28.381 52.0305C28.6604 51.751 28.8174 51.3721 28.8174 50.9769V45.9113C28.8174 45.5161 28.6604 45.1372 28.381 44.8578C28.1016 44.5784 27.7226 44.4214 27.3275 44.4214V44.4214Z" fill="white"/>
<path d="M12.9053 14.6976C13.1823 14.9495 13.544 15.0878 13.9184 15.085C14.1145 15.0861 14.3089 15.0485 14.4904 14.9744C14.6719 14.9003 14.837 14.791 14.9763 14.6529C15.1159 14.5144 15.2267 14.3496 15.3024 14.1681C15.378 13.9865 15.417 13.7918 15.417 13.5951C15.417 13.3984 15.378 13.2037 15.3024 13.0221C15.2267 12.8406 15.1159 12.6758 14.9763 12.5373L11.4303 9.00621C11.1453 8.76212 10.7786 8.63458 10.4037 8.64906C10.0287 8.66354 9.67301 8.81899 9.40767 9.08433C9.14232 9.34967 8.98688 9.70537 8.97239 10.0803C8.95791 10.4553 9.08545 10.8219 9.32954 11.107L12.9053 14.6976Z" fill="white"/>
<path d="M41.7497 39.3107C41.6107 39.1718 41.4458 39.0616 41.2643 38.9864C41.0828 38.9113 40.8883 38.8726 40.6918 38.8726C40.4954 38.8726 40.3008 38.9113 40.1193 38.9864C39.9378 39.0616 39.7729 39.1718 39.634 39.3107C39.4951 39.4496 39.3849 39.6146 39.3097 39.7961C39.2345 39.9776 39.1958 40.1721 39.1958 40.3686C39.1958 40.565 39.2345 40.7595 39.3097 40.941C39.3849 41.1226 39.4951 41.2875 39.634 41.4264L43.2247 45.0021C43.3626 45.1429 43.5272 45.2549 43.7088 45.3316C43.8904 45.4084 44.0854 45.4483 44.2825 45.4491C44.6755 45.4435 45.0503 45.2829 45.3254 45.0021C45.6029 44.723 45.7587 44.3454 45.7587 43.9518C45.7587 43.5582 45.6029 43.1805 45.3254 42.9014L41.7497 39.3107Z" fill="white"/>
<path d="M9.9106 27.0041C9.9106 26.6089 9.75363 26.23 9.47422 25.9505C9.19481 25.6711 8.81584 25.5142 8.4207 25.5142H3.35504C2.9599 25.5142 2.58093 25.6711 2.30152 25.9505C2.02211 26.23 1.86514 26.6089 1.86514 27.0041C1.86514 27.3992 2.02211 27.7782 2.30152 28.0576C2.58093 28.337 2.9599 28.494 3.35504 28.494H8.4207C8.81584 28.494 9.19481 28.337 9.47422 28.0576C9.75363 27.7782 9.9106 27.3992 9.9106 27.0041Z" fill="white"/>
<path d="M51.3 25.5142H46.2343C45.8392 25.5142 45.4602 25.6711 45.1808 25.9505C44.9014 26.23 44.7444 26.6089 44.7444 27.0041C44.7444 27.3992 44.9014 27.7782 45.1808 28.0576C45.4602 28.337 45.8392 28.494 46.2343 28.494H51.3C51.6951 28.494 52.0741 28.337 52.3535 28.0576C52.6329 27.7782 52.7899 27.3992 52.7899 27.0041C52.7899 26.6089 52.6329 26.23 52.3535 25.9505C52.0741 25.6711 51.6951 25.5142 51.3 25.5142Z" fill="white"/>
<path d="M12.9052 39.3107L9.32949 42.9014C9.12027 43.1089 8.97729 43.3738 8.91861 43.6625C8.85993 43.9513 8.88819 44.251 8.99982 44.5237C9.11145 44.7964 9.30144 45.0298 9.54576 45.1946C9.79008 45.3593 10.0778 45.4479 10.3724 45.4491C10.5695 45.4483 10.7645 45.4084 10.9461 45.3316C11.1277 45.2549 11.2923 45.1429 11.4302 45.0021L15.0209 41.4264C15.3015 41.1458 15.4591 40.7653 15.4591 40.3686C15.4591 39.9718 15.3015 39.5913 15.0209 39.3107C14.7403 39.0302 14.3598 38.8726 13.9631 38.8726C13.5663 38.8726 13.1858 39.0302 12.9052 39.3107V39.3107Z" fill="white"/>
<path d="M40.7366 15.0851C40.9327 15.0862 41.1271 15.0486 41.3086 14.9745C41.4901 14.9003 41.6552 14.7911 41.7944 14.653L45.3702 11.0623C45.6477 10.7832 45.8034 10.4056 45.8034 10.012C45.8034 9.61834 45.6477 9.24072 45.3702 8.96157C45.091 8.68408 44.7134 8.52832 44.3198 8.52832C43.9262 8.52832 43.5486 8.68408 43.2694 8.96157L39.6788 12.5373C39.5391 12.6758 39.4283 12.8406 39.3527 13.0222C39.277 13.2037 39.2381 13.3985 39.2381 13.5952C39.2381 13.7918 39.277 13.9866 39.3527 14.1681C39.4283 14.3497 39.5391 14.5145 39.6788 14.653C39.818 14.7911 39.9831 14.9003 40.1646 14.9745C40.3461 15.0486 40.5405 15.0862 40.7366 15.0851Z" fill="white"/>
<path d="M27.5212 11.7327C24.5282 11.6943 21.5913 12.5467 19.084 14.1816C16.5767 15.8165 14.6121 18.16 13.44 20.9142C12.2679 23.6684 11.9413 26.7089 12.5016 29.6493C13.0619 32.5896 14.4838 35.2969 16.5867 37.4271C18.6895 39.5573 21.3782 41.0141 24.3111 41.6123C27.2439 42.2105 30.2884 41.9232 33.0576 40.7868C35.8267 39.6503 38.1954 37.7162 39.8625 35.2302C41.5296 32.7442 42.4199 29.8186 42.4202 26.8254C42.44 22.85 40.8828 19.0289 38.09 16.1997C35.2971 13.3706 31.4965 11.7642 27.5212 11.7327V11.7327ZM27.5212 38.9233C25.117 38.9618 22.7557 38.2838 20.7381 36.9758C18.7205 35.6677 17.1379 33.7888 16.1917 31.5782C15.2456 29.3677 14.9788 26.9255 15.4253 24.5628C15.8717 22.2001 17.0113 20.0238 18.6989 18.3109C20.3864 16.5981 22.5456 15.4262 24.9014 14.9446C27.2572 14.463 29.703 14.6934 31.9274 15.6065C34.1518 16.5197 36.0541 18.0741 37.392 20.072C38.73 22.0699 39.443 24.4208 39.4404 26.8254C39.4563 30.0079 38.2113 33.0673 35.9777 35.3344C33.7441 37.6015 30.7036 38.8919 27.5212 38.9233V38.9233Z" fill="white"/>
</svg>
