<svg width="48" height="47" viewBox="0 0 48 47" fill="none" xmlns="http://www.w3.org/2000/svg">
<path fill-rule="evenodd" clip-rule="evenodd" d="M19.4448 0.173865C15.485 0.344235 11.2502 0.782695 7.9736 1.36161C4.65636 1.94765 1.16157 2.90573 0.878891 3.30649C0.714056 3.54018 0.701433 4.30438 0.836231 5.88629C1.15494 9.62693 2.155 12.8266 4.12325 16.4025C4.42804 16.9563 4.47236 17.1138 4.47236 17.6438C4.47236 18.1739 4.42804 18.3313 4.12325 18.8852C1.94686 22.8391 0.972964 26.2085 0.77542 30.467C0.71378 31.7977 0.714885 31.8086 0.934358 32.0257C1.13347 32.2227 2.64379 32.7343 4.12684 33.1071C4.50258 33.2017 4.51843 33.2199 4.51843 33.558C4.51843 34.4235 5.06702 36.4973 5.61644 37.7085C5.97707 38.5036 6.66331 39.6322 7.19338 40.302L7.64227 40.8693L6.90434 43.0499C6.08634 45.4673 6.04967 45.7511 6.48281 46.3151C6.87126 46.8208 7.20517 46.9233 8.46525 46.9233C9.07511 46.9233 9.68838 46.8801 9.82806 46.8274C9.96783 46.7746 10.665 46.2681 11.3774 45.7018C12.0898 45.1354 12.7193 44.6441 12.7764 44.6098C12.8335 44.5756 13.1859 44.6509 13.5596 44.7773C14.9648 45.2526 15.9517 45.4016 17.6942 45.4016C19.4366 45.4016 20.4236 45.2526 21.8287 44.7773C22.2024 44.6509 22.5548 44.5756 22.6119 44.6098C22.669 44.6441 23.2985 45.1354 24.0109 45.7018C24.7233 46.2681 25.4205 46.7746 25.5602 46.8274C25.6999 46.8801 26.3201 46.9233 26.9384 46.9233C28.2085 46.9233 28.5469 46.814 28.9097 46.2862C29.3222 45.6862 29.3016 45.5281 28.4954 43.1057L27.7528 40.875L28.2836 40.1705C29.363 38.738 30.2995 36.7845 30.5548 35.4335C30.5876 35.2599 30.6407 35.1019 30.673 35.0823C30.7053 35.0627 31.3536 35.0002 32.1137 34.9437C37.9233 34.5113 43.0902 33.643 46.6459 32.5017C47.8373 32.1192 47.9157 32.0352 47.9146 31.1423C47.9101 27.5232 46.8283 23.2046 45.1291 20.0228C44.82 19.4441 44.4848 18.8118 44.3841 18.6177C44.1498 18.1663 44.0843 17.4873 44.2321 17.0424C44.2957 16.8509 44.5911 16.2596 44.8886 15.7286C46.7301 12.4399 47.9088 7.92789 47.9145 4.14535C47.9158 3.25242 47.8373 3.16842 46.6459 2.78614C40.3035 0.75122 29.6977 -0.26734 19.4448 0.173865ZM30.8238 1.72083C35.3465 2.01426 39.035 2.49252 42.5593 3.24263C44.18 3.58749 46.2511 4.15121 46.3846 4.28379C46.5035 4.40182 46.2833 6.77108 46.0224 8.18125C45.534 10.8208 44.6247 13.2851 43.3074 15.5394C42.4505 17.0056 42.4505 18.282 43.3074 19.7483C44.6247 22.0025 45.534 24.4669 46.0224 27.1064C46.2833 28.5166 46.5035 30.8858 46.3846 31.0039C46.2511 31.1365 44.18 31.7002 42.5593 32.045C39.1954 32.761 36.7468 33.0882 31.5148 33.5214L30.9159 33.5709L30.9139 32.2181C30.9089 28.9227 29.8226 26.0862 27.5977 23.5588L26.8892 22.7542L27.5808 22.0485C28.3827 21.2302 28.5518 20.834 28.377 20.1829C28.2299 19.6348 27.1143 18.527 26.5624 18.3809C25.8515 18.1927 25.5197 18.3571 24.4008 19.4517L23.4139 20.417L22.8805 20.1845C22.129 19.8568 21.2812 19.595 20.1588 19.344C19.924 19.2914 19.9055 19.254 19.9055 18.8316V18.3758H20.4164C20.8361 18.3758 20.9678 18.3356 21.1535 18.1512C21.3667 17.9396 21.3797 17.8678 21.3797 16.9037C21.3797 15.6526 21.2749 15.281 20.7623 14.7148C20.1646 14.0546 19.8693 13.9839 17.7115 13.9839C15.5636 13.9839 15.3315 14.0365 14.6965 14.667C14.1143 15.2452 14.0086 15.5889 14.0086 16.9037C14.0086 17.8678 14.0216 17.9396 14.2348 18.1512C14.4205 18.3356 14.5522 18.3758 14.9719 18.3758H15.4828V18.8316C15.4828 19.254 15.4643 19.2914 15.2295 19.344C14.1071 19.595 13.2593 19.8568 12.5078 20.1845L11.9744 20.417L10.9875 19.4517C9.8686 18.3571 9.53681 18.1927 8.82588 18.3809C8.27397 18.527 7.15837 19.6348 7.01131 20.1829C6.83634 20.8347 7.00542 21.23 7.8107 22.0518L8.50533 22.7607L8.01672 23.2903C6.63493 24.7882 5.64039 26.5 5.03348 28.425C4.77236 29.2532 4.51926 30.556 4.51705 31.0832C4.51447 31.6878 4.47052 31.6983 3.32303 31.3652C2.755 31.2003 2.26888 31.0102 2.24281 30.9425C2.16099 30.7308 2.40313 28.3581 2.63421 27.1064C3.12438 24.4521 4.02264 22.0172 5.34869 19.7483C6.22519 18.2486 6.20935 17.0203 5.29294 15.4427C3.53338 12.4132 2.36379 8.41659 2.28344 5.15943L2.26105 4.24957L3.08403 3.99429C5.2208 3.33138 9.37511 2.54129 12.6266 2.17942C15.1344 1.90035 16.3796 1.80903 20.5965 1.5952C21.823 1.53298 29.355 1.62549 30.8238 1.72083ZM36.4401 3.96071C36.1485 4.25012 36.141 4.67851 36.4224 4.95795C36.5989 5.13326 37.1508 5.26813 40.0174 5.83652C43.811 6.58872 43.5962 6.49558 43.4078 7.30754C43.2358 8.04904 43.2787 8.45749 43.5513 8.67031C43.8657 8.91599 44.1603 8.91059 44.4611 8.65366C44.7968 8.3669 45.0657 6.89433 44.8891 6.3092C44.7434 5.82609 44.3378 5.36567 43.8889 5.1737C43.5605 5.03325 37.1906 3.73553 36.8317 3.7359C36.7406 3.73599 36.5645 3.83719 36.4401 3.96071ZM42.7757 9.7348C42.6627 9.81331 42.5094 9.99466 42.4348 10.1377C42.3604 10.2808 42.0911 10.6556 41.8365 10.9707C41.3032 11.6306 41.247 11.945 41.5998 12.2953C42.097 12.7891 42.63 12.4724 43.5155 11.1571C43.9489 10.5132 43.9824 10.0658 43.6185 9.78165C43.329 9.55547 43.0553 9.54028 42.7757 9.7348ZM34.8737 12.7446C34.5992 13.017 34.5784 13.4213 34.8233 13.7221C34.9834 13.9188 35.0882 13.9423 35.9942 13.9839L36.9892 14.0296L35.6572 15.118C34.9245 15.7166 34.2318 16.3056 34.1177 16.4269C33.8408 16.7216 33.8486 17.1333 34.1366 17.4192L34.3627 17.6438H36.4903H38.6178L38.844 17.4192C39.1184 17.1467 39.1393 16.7425 38.8943 16.4416C38.7345 16.2452 38.6291 16.2215 37.7298 16.1799L36.7411 16.1341L38.2209 14.9147C39.0349 14.244 39.7248 13.6334 39.7541 13.5576C39.865 13.2704 39.7993 12.9612 39.5811 12.7446L39.3549 12.5199H37.2274H35.0998L34.8737 12.7446ZM19.6793 15.6725C19.865 15.8569 19.9055 15.9877 19.9055 16.4045V16.9118H17.6942H15.4828V16.4045C15.4828 15.9877 15.5233 15.8569 15.709 15.6725C15.9333 15.4497 15.9494 15.4479 17.6942 15.4479C19.4389 15.4479 19.455 15.4497 19.6793 15.6725ZM18.4313 18.7418V19.1078H17.6942H16.957V18.7418V18.3758H17.6942H18.4313V18.7418ZM31.1882 18.6004C31.0456 18.742 30.962 18.9296 30.962 19.1078C30.962 19.286 31.0456 19.4736 31.1882 19.6152C31.3794 19.8051 31.5021 19.8398 31.9828 19.8398H32.5513L31.5032 20.6685C30.9268 21.1243 30.4035 21.5645 30.3401 21.6467C30.1529 21.8897 30.2033 22.2972 30.4511 22.5431L30.6772 22.7677H32.8048H34.9323L35.1584 22.5431C35.4577 22.246 35.4577 21.8255 35.1584 21.5284C34.948 21.3193 34.8673 21.3038 33.9953 21.3038H33.0582L34.1063 20.4751C34.6827 20.0192 35.2062 19.579 35.2695 19.4969C35.4566 19.2538 35.4062 18.8464 35.1584 18.6004C34.9342 18.3776 34.918 18.3758 33.1733 18.3758C31.4286 18.3758 31.4125 18.3776 31.1882 18.6004ZM9.94065 20.5121L10.6132 21.1845L10.138 21.4873L9.66286 21.7901L9.05115 21.1827L8.43954 20.5753L8.80109 20.2075C9.00002 20.0053 9.18641 19.8398 9.21544 19.8398C9.24446 19.8398 9.57081 20.1424 9.94065 20.5121ZM26.5872 20.2075L26.9488 20.5753L26.3371 21.1827L25.7254 21.7901L25.2503 21.4873L24.7751 21.1845L25.4477 20.5121C25.8175 20.1424 26.1438 19.8398 26.1729 19.8398C26.2019 19.8398 26.3883 20.0053 26.5872 20.2075ZM20.1819 20.8366C22.4988 21.3611 24.2873 22.3461 25.9985 24.04C27.7069 25.7312 28.7557 27.6428 29.2666 29.9961C29.5026 31.0836 29.5026 33.4836 29.2666 34.571C28.7563 36.9216 27.7088 38.8317 25.9985 40.5302C24.2886 42.2283 22.3688 43.2668 19.9976 43.7763C18.8357 44.0261 16.3885 44.007 15.2423 43.7392C12.8542 43.1814 11.0798 42.2084 9.38985 40.5302C7.6795 38.8317 6.63198 36.9216 6.12172 34.571C5.88566 33.4836 5.88566 31.0836 6.12172 29.9961C6.6364 27.625 7.65646 25.767 9.39299 24.0369C11.3305 22.1068 13.6564 20.9762 16.4042 20.6288C17.1309 20.5369 19.4127 20.6625 20.1819 20.8366ZM16.0357 22.1765C12.8 22.6845 9.95687 24.7818 8.44507 27.776C6.48521 31.6576 7.28146 36.3977 10.4164 39.5108C13.4897 42.5629 18.1348 43.3859 22.0124 41.5655C23.6095 40.8158 24.7913 39.8833 25.8204 38.5609C29.0211 34.4482 28.6611 28.72 24.9719 25.0563C22.608 22.7087 19.3442 21.6569 16.0357 22.1765ZM17.221 24.7891C17.5235 25.0323 17.9307 25.0116 18.2051 24.7391C18.3893 24.5562 18.4313 24.423 18.4313 24.021V23.5275L18.961 23.6092C20.3237 23.8196 21.9437 24.4756 22.9197 25.2121L23.4001 25.5746L23.0851 25.8778C22.6959 26.2525 22.5974 26.6249 22.8046 26.9388C23.1423 27.4507 23.6651 27.4291 24.1936 26.8813L24.4492 26.6163L24.8148 27.0939C25.5567 28.0635 26.2172 29.6721 26.4291 31.0255L26.5115 31.5516H26.0145C25.4145 31.5516 25.0652 31.8209 25.0652 32.2836C25.0652 32.7463 25.4145 33.0156 26.0145 33.0156H26.5115L26.4291 33.5417C26.2174 34.8938 25.5567 36.5037 24.8165 37.471L24.4528 37.9461L24.1371 37.6331C23.9634 37.4609 23.6883 37.2937 23.5256 37.2615C23.2754 37.2121 23.185 37.2476 22.9389 37.4919C22.6929 37.7363 22.6572 37.8261 22.7069 38.0745C22.7393 38.2361 22.9077 38.5093 23.0811 38.6818L23.3963 38.9953L22.9178 39.3565C21.9437 40.0916 20.3227 40.7476 18.961 40.9579L18.4313 41.0397V40.5461C18.4313 39.9503 18.1601 39.6034 17.6942 39.6034C17.2282 39.6034 16.957 39.9503 16.957 40.5461V41.0397L16.4273 40.9579C15.0644 40.7474 13.4446 40.0915 12.4682 39.3547L11.9872 38.9918L12.2541 38.7379C12.8058 38.2131 12.8275 37.6939 12.312 37.3585C11.9959 37.1527 11.6209 37.2507 11.2436 37.6371L10.9383 37.9499L10.5733 37.4728C9.83156 36.5037 9.17103 34.8948 8.9592 33.5417L8.87683 33.0156H9.37382C9.77868 33.0156 9.91274 32.9739 10.0969 32.7909C10.3714 32.5184 10.3922 32.1141 10.1473 31.8137C10.0094 31.6446 9.85404 31.5882 9.42652 31.5519L8.88153 31.5058L8.99771 30.8245C9.22253 29.5058 9.78448 28.1663 10.5526 27.1184L10.9204 26.6167L11.2456 26.932C11.4244 27.1054 11.7031 27.2736 11.8647 27.3057C12.1111 27.3546 12.2037 27.3192 12.4386 27.0859C12.838 26.6892 12.7954 26.405 12.2503 25.8319L11.9881 25.5565L12.4932 25.1914C13.5481 24.4288 14.897 23.8708 16.2249 23.6475L16.911 23.5321L16.9574 24.0733C16.9939 24.4979 17.0508 24.6521 17.221 24.7891ZM17.1832 26.6523C16.9594 26.8745 16.957 26.8948 16.957 28.5626V30.2484L16.6775 30.3634C16.2979 30.5196 15.7235 31.1869 15.5912 31.6254C15.3389 32.4616 15.5238 33.1538 16.1707 33.7964C16.8072 34.4285 17.5813 34.6367 18.3304 34.3773C18.6188 34.2775 18.6407 34.2899 19.3017 34.9263C19.8732 35.4767 20.0269 35.5775 20.2942 35.5775C20.7027 35.5775 21.0111 35.2658 21.0111 34.8528C21.0111 34.6032 20.8985 34.4363 20.3554 33.8799C19.7145 33.2235 19.702 33.2018 19.8025 32.9154C20.0394 32.2407 19.8632 31.4631 19.3396 30.8723C19.1475 30.6556 18.8646 30.4266 18.7108 30.3634L18.4313 30.2484V28.5626C18.4313 26.8948 18.4289 26.8745 18.2051 26.6523C18.0625 26.5107 17.8736 26.4277 17.6942 26.4277C17.5147 26.4277 17.3258 26.5107 17.1832 26.6523ZM18.2051 31.7762C18.6622 32.23 18.3383 33.0156 17.6942 33.0156C17.3154 33.0156 16.957 32.6597 16.957 32.2836C16.957 31.9074 17.3154 31.5516 17.6942 31.5516C17.8736 31.5516 18.0625 31.6346 18.2051 31.7762ZM9.26961 42.4262C9.6167 42.7295 10.6884 43.4767 11.1931 43.7673C11.3295 43.8459 11.2029 43.9784 10.3407 44.6595L9.32812 45.4593H8.49759H7.66706L8.23343 43.7666C8.54495 42.8356 8.81482 42.0739 8.83325 42.0739C8.85168 42.0739 9.04802 42.2324 9.26961 42.4262ZM27.1549 43.7666L27.7212 45.4593H26.8907H26.0602L25.0476 44.6595C24.1843 43.9775 24.0587 43.846 24.1958 43.7673C24.7528 43.4478 25.7359 42.7612 26.0841 42.4488C26.3091 42.2467 26.5147 42.0797 26.541 42.0776C26.5671 42.0755 26.8434 42.8356 27.1549 43.7666Z" fill="white"/>
</svg>
