<svg width="19" height="19" viewBox="0 0 19 19" fill="none" xmlns="http://www.w3.org/2000/svg">
<path d="M18.24 0H0.76C0.339625 0 0 0.339625 0 0.76V18.24C0 18.6604 0.339625 19 0.76 19H18.24C18.6604 19 19 18.6604 19 18.24V0.76C19 0.339625 18.6604 0 18.24 0ZM14.6134 6.88038C14.6205 6.992 14.6205 7.10838 14.6205 7.22237C14.6205 10.7089 11.9653 14.725 7.11312 14.725C5.61687 14.725 4.22987 14.2904 3.06137 13.5422C3.27512 13.566 3.47938 13.5755 3.69788 13.5755C4.93288 13.5755 6.06813 13.1575 6.973 12.4497C5.814 12.426 4.84025 11.666 4.50775 10.621C4.91387 10.6804 5.27962 10.6804 5.69762 10.5735C5.10085 10.4523 4.56445 10.1281 4.17956 9.65623C3.79467 9.18432 3.58503 8.59372 3.58625 7.98475V7.9515C3.93537 8.14862 4.34625 8.26975 4.77612 8.28638C4.41475 8.04554 4.11839 7.71925 3.91331 7.33645C3.70824 6.95364 3.60079 6.52615 3.6005 6.09188C3.6005 5.60025 3.72875 5.15137 3.95913 4.76188C4.62152 5.5773 5.44809 6.24421 6.3851 6.71927C7.32212 7.19432 8.34862 7.46689 9.39787 7.51925C9.025 5.72613 10.3645 4.275 11.9748 4.275C12.7347 4.275 13.4187 4.59325 13.9009 5.10625C14.497 4.99463 15.067 4.77137 15.5752 4.47212C15.3781 5.0825 14.9649 5.59787 14.4163 5.92325C14.9482 5.86625 15.4612 5.719 15.9362 5.51237C15.5776 6.03963 15.1287 6.5075 14.6134 6.88038Z" fill="white"/>
</svg>
