<svg width="129" height="103" viewBox="0 0 129 103" fill="none" xmlns="http://www.w3.org/2000/svg">
<g opacity="0.3">
<path fill-rule="evenodd" clip-rule="evenodd" d="M24.0007 0.0504019L0 14.108V41.8937L24.0007 55.7798V55.8296L24.0437 55.8047L24.0867 55.8296V55.7798L48.0874 41.8937V14.108L24.0867 0.0504019V0L24.0437 0.0252009L24.0007 0V0.0504019Z" fill="#00B67A"/>
<path fill-rule="evenodd" clip-rule="evenodd" d="M77.9424 0.0503784L53.9417 14.108V41.8937L77.9424 55.7799V55.8296L77.9854 55.8047L78.0284 55.8296V55.7799L102.029 41.8937V14.108L78.0284 0.0503784V0L77.9854 0.0251892L77.9424 0V0.0503784Z" fill="#CDECD8"/>
<path fill-rule="evenodd" clip-rule="evenodd" d="M50.9715 46.9791L26.9708 61.0367V88.8224L50.9715 102.709V102.758L51.0145 102.733L51.0575 102.758V102.709L75.0582 88.8224V61.0367L51.0575 46.9791V46.9287L51.0145 46.9539L50.9715 46.9287V46.9791Z" fill="#00B67A"/>
<path fill-rule="evenodd" clip-rule="evenodd" d="M104.913 46.9791L80.9125 61.0367V88.8224L104.913 102.709V102.758L104.956 102.733L104.999 102.758V102.709L129 88.8224V61.0367L104.999 46.9791V46.9287L104.956 46.9539L104.913 46.9287V46.9791Z" fill="#CDECD8"/>
</g>
</svg>
