<svg width="169" height="134" viewBox="0 0 169 134" fill="none" xmlns="http://www.w3.org/2000/svg">
<g opacity="0.3">
<path fill-rule="evenodd" clip-rule="evenodd" d="M31.2647 0.0656556L0 18.3778V54.5732L31.2647 72.6621V72.7269L31.3208 72.6945L31.3768 72.7269V72.6621L62.6415 54.5732V18.3778L31.3768 0.0656556V0L31.3208 0.0328278L31.2647 0V0.0656556Z" fill="#00B67A"/>
<path fill-rule="evenodd" clip-rule="evenodd" d="M101.532 0.0656265L70.2676 18.3778V54.5732L101.532 72.6621V72.7269L101.588 72.6945L101.644 72.7269V72.6621L132.909 54.5732V18.3778L101.644 0.0656265V0L101.588 0.0328133L101.532 0V0.0656265Z" fill="#CDECD8"/>
<path fill-rule="evenodd" clip-rule="evenodd" d="M66.3983 61.1979L35.1335 79.5102V115.706L66.3983 133.794V133.859L66.4543 133.827L66.5103 133.859V133.794L97.7751 115.706V79.5102L66.5103 61.1979V61.1323L66.4543 61.1651L66.3983 61.1323V61.1979Z" fill="#00B67A"/>
<path fill-rule="evenodd" clip-rule="evenodd" d="M136.666 61.1979L105.401 79.5102V115.706L136.666 133.794V133.859L136.722 133.827L136.778 133.859V133.794L168.043 115.706V79.5102L136.778 61.1979V61.1323L136.722 61.1651L136.666 61.1323V61.1979Z" fill="#CDECD8"/>
</g>
</svg>
