<svg width="163" height="34" viewBox="0 0 163 34" fill="none" xmlns="http://www.w3.org/2000/svg">
<g clip-path="url(#clip0_101_641)">
<path d="M5.1 32.1301V1.62615H0V0.369624H17.0591C18.6406 0.352657 20.2212 0.44651 21.7896 0.650494C23.1154 0.864692 24.3774 1.3695 25.4852 2.12876C26.5979 2.85103 27.4802 3.87703 28.0278 5.08528C28.5025 6.11755 28.7544 7.23828 28.767 8.37441C28.767 12.3164 25.7562 14.8837 19.7348 16.0761V16.2018C26.5249 17.3006 29.9225 20.1241 29.9274 24.6722C29.8991 25.9049 29.5854 27.1143 29.0109 28.2053C28.342 29.5137 27.3401 30.6227 26.1061 31.4205C24.8905 32.2777 23.4993 32.8534 22.0335 33.1057C20.3003 33.3509 18.5507 33.4621 16.8004 33.4383H0V32.1818L5.1 32.1301ZM16.0022 1.62615H10.9539V15.5218H15.5217C18.5891 15.5218 20.5552 14.9231 21.4348 13.7257C22.3143 12.5283 22.7135 10.6435 22.7135 8.06397C22.7135 6.04615 22.44 4.57528 21.8783 3.62919C21.6601 3.21577 21.3581 2.85238 20.9915 2.56222C20.625 2.27206 20.202 2.0615 19.7496 1.94397C18.5163 1.69755 17.2593 1.59094 16.0022 1.62615V1.62615ZM15.433 16.7414H10.9539V32.1301H15.5809C16.9663 32.164 18.3509 32.0325 19.7052 31.7383C20.8204 31.4038 21.7615 30.6483 22.3291 29.6318C23.0683 28.4861 23.4157 26.6753 23.4157 24.2509C23.4157 21.6393 22.8687 19.7348 21.7748 18.5375C20.6957 17.3401 18.5743 16.7414 15.433 16.7414Z" fill="#02312C"/>
<path d="M52.9143 22.2329H40.4526C40.3393 27.0914 40.6103 30.0824 41.2657 31.2059C41.921 32.3294 43.0962 32.8911 44.7913 32.8911C48.2406 32.8911 50.5959 30.8733 51.8574 26.8377H52.9143C52.5683 28.9504 51.4776 30.8696 49.8396 32.2481C48.4048 33.3888 46.6242 34.0066 44.7913 33.9998C43.5007 34.0055 42.2226 33.746 41.0363 33.2375C39.8501 32.7289 38.781 31.9821 37.8952 31.0433C36.9251 30.0775 36.1625 28.9238 35.6541 27.6528C35.1457 26.3818 34.9023 25.0204 34.9387 23.652C34.9047 22.3072 35.1411 20.9692 35.6337 19.7173C36.1263 18.4655 36.8652 17.3252 37.8065 16.3642C38.649 15.4361 39.6756 14.6939 40.821 14.1848C41.9664 13.6758 43.2053 13.4111 44.4587 13.4077C45.5332 13.3966 46.5992 13.5986 47.5951 14.0021C48.591 14.4055 49.497 15.0023 50.2609 15.7581C51.1109 16.6071 51.7834 17.6169 52.2389 18.7286C52.6945 19.8402 52.9241 21.0315 52.9143 22.2329ZM40.4526 21.1242H47.6222C47.7334 20.2413 47.7975 19.353 47.8144 18.4633C47.8144 15.8419 46.6244 14.5287 44.2444 14.5237C43.2305 14.4677 42.2343 14.8068 41.4652 15.4698C41.1236 15.8038 40.8568 16.2063 40.6822 16.651C40.5077 17.0956 40.4294 17.5723 40.4526 18.0494V21.1242Z" fill="#02312C"/>
<path d="M59.3448 32.13V1.62609H55.8265V0.369565H59.197C60.8561 0.419562 62.5158 0.295698 64.1491 0V32.13H67.6157V33.3865H55.7896V32.13H59.3448Z" fill="#02312C"/>
<path d="M78.348 13.6663V32.1446H81.5706V33.4011H70.0845V32.1446H73.5288V15.285H70.0845V14.0433H73.5806C75.1774 14.049 76.7719 13.9229 78.348 13.6663V13.6663ZM73.3588 4.1833C73.3561 3.83346 73.4255 3.4868 73.5629 3.16504C73.7003 2.84327 73.9025 2.55331 74.1571 2.3133C74.4022 2.0624 74.6955 1.86365 75.0194 1.72901C75.3433 1.59437 75.6911 1.52662 76.0419 1.52982C76.3892 1.52288 76.7345 1.5846 77.058 1.71144C77.3814 1.83828 77.6766 2.02774 77.9266 2.26895C78.1838 2.51009 78.3876 2.80234 78.5251 3.12694C78.6626 3.45153 78.7306 3.80128 78.7249 4.15374C78.7359 4.51103 78.6718 4.86665 78.5369 5.19765C78.4019 5.52866 78.1991 5.8277 77.9414 6.07548C77.6901 6.31916 77.3926 6.51009 77.0664 6.63703C76.7401 6.76397 76.3918 6.82435 76.0419 6.81461C75.6892 6.81558 75.3399 6.74685 75.014 6.61236C74.688 6.47787 74.3918 6.28027 74.1425 6.03094C73.8932 5.7816 73.6956 5.48543 73.5611 5.15947C73.4266 4.83351 73.3578 4.48418 73.3588 4.13156V4.1833Z" fill="#02312C"/>
<path d="M102.517 22.2332H90.0557C89.9423 27.0917 90.2133 30.0827 90.8687 31.2062C91.5241 32.3297 92.6993 32.8914 94.3944 32.8914C97.8436 32.8914 100.199 30.8736 101.46 26.838H102.517C101.97 29.2845 100.95 31.088 99.4352 32.2484C98.0033 33.3891 96.2251 34.007 94.3944 34.0001C93.1037 34.0058 91.8256 33.7463 90.6394 33.2378C89.4531 32.7292 88.384 31.9824 87.4983 31.0436C86.5282 30.0778 85.7655 28.9241 85.2572 27.6531C84.7488 26.3821 84.5053 25.0207 84.5417 23.6523C84.5078 22.3074 84.7441 20.9695 85.2367 19.7176C85.7293 18.4658 86.4682 17.3255 87.4096 16.3645C88.252 15.4364 89.2787 14.6942 90.4241 14.1851C91.5694 13.6761 92.8084 13.4114 94.0617 13.408C95.1307 13.3998 96.1908 13.6026 97.1814 14.0046C98.1719 14.4067 99.0734 15.0001 99.8344 15.751C100.691 16.5984 101.369 17.6083 101.83 18.7214C102.291 19.8345 102.524 21.0285 102.517 22.2332ZM90.0557 21.1245H97.2252C97.3509 19.9566 97.4174 19.0697 97.4174 18.4636C97.4174 15.8422 96.2274 14.529 93.8474 14.524C92.8333 14.4665 91.8366 14.8058 91.0683 15.4701C90.7267 15.804 90.4598 16.2066 90.2852 16.6513C90.1107 17.0959 90.0324 17.5726 90.0557 18.0497V21.1245Z" fill="#02312C"/>
<path d="M114.144 0V17.3104H114.24C114.727 16.1179 115.569 15.1041 116.652 14.4072C117.735 13.7102 119.007 13.3638 120.293 13.4152C121.507 13.4237 122.703 13.7036 123.794 14.2344C124.884 14.7651 125.843 15.5333 126.598 16.4826C128.353 18.4381 129.31 20.9807 129.281 23.6078C129.286 26.2415 128.353 28.7909 126.65 30.7996C124.891 32.9332 122.856 34 120.545 34C117.751 34 115.649 32.4971 114.24 29.4913H114.144V33.6822C112.612 33.4563 111.065 33.3574 109.517 33.3865H105.917V32.13H109.391V1.62609H105.917V0.369565H109.391C110.984 0.403141 112.576 0.279351 114.144 0V0ZM120.249 32.7213C121.89 32.7213 122.876 32.0733 123.206 30.7774C123.536 29.4814 123.713 27.0423 123.738 23.46C123.738 19.8161 123.553 17.4213 123.183 16.2609C122.814 15.1004 121.794 14.5239 120.116 14.5239C118.87 14.5077 117.658 14.9317 116.694 15.7213C115.759 16.4459 115.047 17.4193 114.639 18.53C114.163 20.38 113.969 22.2912 114.063 24.1991C114.063 26.8452 114.691 28.9222 115.947 30.4448C116.44 31.1301 117.085 31.6922 117.832 32.0871C118.578 32.482 119.405 32.6991 120.249 32.7213V32.7213Z" fill="#02312C"/>
<path d="M141.573 13.6668V32.145H144.796V33.4015H133.354V32.145H136.798V15.2854H133.354V14.0437H136.85C138.432 14.0471 140.012 13.921 141.573 13.6668ZM136.628 4.18371C136.626 3.83386 136.695 3.48721 136.832 3.16544C136.97 2.84368 137.172 2.55372 137.427 2.31371C137.671 2.06246 137.965 1.86349 138.289 1.72882C138.613 1.59416 138.96 1.5266 139.311 1.53023C139.657 1.52386 140.002 1.58587 140.324 1.7127C140.646 1.83954 140.94 2.0287 141.189 2.26936C141.448 2.50927 141.654 2.80112 141.792 3.12588C141.931 3.45064 142 3.80101 141.994 4.15414C142.004 4.51905 141.936 4.88188 141.795 5.21838C141.653 5.55489 141.442 5.85732 141.174 6.10545C140.666 6.59896 139.986 6.87504 139.278 6.87504C138.57 6.87504 137.89 6.59896 137.382 6.10545C137.131 5.85456 136.934 5.55428 136.804 5.22353C136.674 4.89278 136.614 4.53873 136.628 4.18371V4.18371Z" fill="#02312C"/>
<path d="M161.3 13.8142V19.3281H160.288C159.534 16.1301 157.696 14.5287 154.774 14.5237C153.636 14.484 152.519 14.8363 151.61 15.5216C151.235 15.7748 150.926 16.113 150.706 16.5085C150.486 16.9041 150.363 17.3459 150.346 17.7981C150.337 18.1365 150.414 18.4718 150.57 18.772C150.727 19.0722 150.958 19.3273 151.241 19.5129C151.839 19.9268 153.259 20.289 155.491 20.5846C160.418 21.1907 162.882 23.4229 162.882 27.2811C162.907 28.1683 162.75 29.0512 162.422 29.8759C162.095 30.7006 161.602 31.4499 160.975 32.0781C160.358 32.7066 159.619 33.2016 158.802 33.5322C157.986 33.8628 157.11 34.0219 156.23 33.9998C154.191 33.9464 152.247 33.1285 150.783 31.7085L149.06 33.1868H148.196V25.9211H149.06C150.47 30.5678 152.84 32.8911 156.171 32.8911C157.435 32.9029 158.665 32.4773 159.652 31.6863C160.122 31.3693 160.508 30.9438 160.778 30.4459C161.048 29.948 161.194 29.3923 161.204 28.8259C161.228 28.4353 161.156 28.0447 160.995 27.688C160.834 27.3312 160.589 27.0191 160.28 26.7785C159.659 26.3203 158.004 25.8916 155.291 25.4998C150.679 24.8297 148.373 22.7774 148.373 19.3429C148.358 18.543 148.517 17.7495 148.838 17.017C149.16 16.2845 149.637 15.6306 150.236 15.1003C151.466 13.9574 153.095 13.3418 154.774 13.3855C155.651 13.3633 156.523 13.5174 157.34 13.8387C158.156 14.1599 158.9 14.6417 159.526 15.2555C159.928 14.8096 160.268 14.3125 160.539 13.7772L161.3 13.8142Z" fill="#02312C"/>
</g>
<defs>
<clipPath id="clip0_101_641">
<rect width="162.853" height="34" fill="white"/>
</clipPath>
</defs>
</svg>
